<svg width="181" height="48" viewBox="0 0 181 48" fill="none" xmlns="http://www.w3.org/2000/svg">
<g clip-path="url(#clip0_6072_439)">
<path d="M105.064 20.0752H97.9782V20.8269C100.194 20.8269 100.551 21.3019 100.551 24.1125V29.1795C100.551 31.9899 100.195 32.5045 97.9782 32.5045C96.2765 32.2672 95.1282 31.3565 93.5448 29.6149L91.7242 27.6359C94.1782 27.1999 95.4842 25.6565 95.4842 23.9145C95.4842 21.7379 93.6242 20.0752 90.1405 20.0752H83.1738V20.8269C85.3902 20.8269 85.7465 21.3019 85.7465 24.1125V29.1795C85.7465 31.9899 85.3902 32.5045 83.1738 32.5045V33.2565H91.0508V32.5045C88.8345 32.5045 88.4782 31.9899 88.4782 29.1795V27.7549H89.1508L93.5448 33.2565H105.064C110.724 33.2565 113.178 30.2485 113.178 26.6459C113.178 23.0439 110.724 20.0752 105.064 20.0752ZM88.4785 26.5269V21.2629H90.1012C91.8822 21.2629 92.6742 22.4899 92.6742 23.9149C92.6742 25.3005 91.8822 26.5272 90.1012 26.5272L88.4785 26.5269ZM105.183 32.0295H104.905C103.481 32.0295 103.283 31.6735 103.283 29.8525V21.2629C103.283 21.2629 105.024 21.2629 105.183 21.2629C109.299 21.2629 110.051 24.2709 110.051 26.6065C110.051 29.0209 109.299 32.0295 105.183 32.0295Z" fill="#00749A"/>
<path d="M61.1263 27.9929L63.8576 19.9172C64.6496 17.5819 64.2933 16.9092 61.7599 16.9092V16.1172H69.2016V16.9092C66.7079 16.9092 66.1143 17.5029 65.1246 20.3925L60.6116 33.9302H60.0973L56.0593 21.5402L51.9429 33.9302H51.4283L47.0346 20.3925C46.0846 17.5029 45.4513 16.9092 43.1553 16.9092V16.1172H51.9429V16.9092C49.6073 16.9092 48.9736 17.4632 49.8053 19.9172L52.4573 27.9929L56.4553 16.1172H57.2076L61.1263 27.9929Z" fill="#00749A"/>
<path d="M74.5846 33.7715C70.2306 33.7715 66.668 30.5655 66.668 26.6462C66.668 22.7672 70.231 19.5605 74.5846 19.5605C78.939 19.5605 82.5013 22.7672 82.5013 26.6462C82.5013 30.5655 78.939 33.7715 74.5846 33.7715ZM74.5846 20.7885C70.9433 20.7885 69.6763 24.0735 69.6763 26.6465C69.6763 29.2595 70.9433 32.5052 74.5846 32.5052C78.2663 32.5052 79.533 29.2595 79.533 26.6465C79.533 24.0735 78.2663 20.7885 74.5846 20.7885Z" fill="#00749A"/>
<path d="M122.955 32.4649V33.2565H113.891V32.4649C116.543 32.4649 117.018 31.7922 117.018 27.8332V21.5002C117.018 17.5412 116.543 16.9082 113.891 16.9082V16.1162H122.084C126.161 16.1162 128.418 18.2142 128.418 21.0252C128.418 23.7565 126.161 25.8939 122.084 25.8939H119.828V27.8329C119.828 31.7922 120.303 32.4649 122.955 32.4649ZM122.084 17.5412H119.828V24.4292H122.084C124.301 24.4292 125.33 22.8855 125.33 21.0252C125.33 19.1252 124.301 17.5412 122.084 17.5412Z" fill="white"/>
<path d="M155.612 29.5359L155.414 30.2482C155.058 31.5545 154.622 32.0295 151.812 32.0295H151.257C149.199 32.0295 148.843 31.5545 148.843 28.7442V26.9235C151.931 26.9235 152.168 27.2002 152.168 29.2589H152.92V23.3605H152.168C152.168 25.4189 151.931 25.6959 148.843 25.6959V21.2629H151.02C153.831 21.2629 154.266 21.7379 154.622 23.0442L154.82 23.7959H155.453L155.177 20.0752H143.539V20.8269C145.755 20.8269 146.112 21.3019 146.112 24.1125V29.1795C146.112 31.7505 145.809 32.3982 144.061 32.4905C142.4 32.2369 141.26 31.3309 139.7 29.6149L137.879 27.6359C140.333 27.1999 141.639 25.6565 141.639 23.9145C141.639 21.7379 139.779 20.0752 136.296 20.0752H129.329V20.8269C131.545 20.8269 131.902 21.3019 131.902 24.1125V29.1795C131.902 31.9899 131.546 32.5045 129.329 32.5045V33.2565H137.206V32.5045C134.99 32.5045 134.633 31.9899 134.633 29.1795V27.7549H135.306L139.7 33.2565H155.969L156.206 29.5362L155.612 29.5359ZM134.633 26.5269V21.2629H136.256C138.037 21.2629 138.829 22.4899 138.829 23.9149C138.829 25.3005 138.037 26.5272 136.256 26.5272L134.633 26.5269Z" fill="white"/>
<path d="M163.646 33.7712C162.063 33.7712 160.677 32.9402 160.084 32.4252C159.886 32.6235 159.53 33.2172 159.451 33.7712H158.698V28.3092H159.49C159.807 30.9215 161.627 32.4652 163.963 32.4652C165.23 32.4652 166.259 31.7529 166.259 30.5655C166.259 29.5365 165.349 28.7445 163.726 27.9925L161.469 26.9239C159.886 26.1712 158.698 24.8649 158.698 23.1235C158.698 21.2235 160.48 19.6009 162.934 19.6009C164.24 19.6009 165.348 20.0759 166.022 20.6299C166.219 20.4715 166.417 20.0359 166.536 19.5605H167.288V24.2319H166.457C166.18 22.3712 165.151 20.8275 163.053 20.8275C161.945 20.8275 160.915 21.4609 160.915 22.4509C160.915 23.4799 161.746 24.0339 163.647 24.9049L165.823 25.9735C167.724 26.8839 168.475 28.3492 168.475 29.5365C168.475 32.0299 166.298 33.7712 163.646 33.7712Z" fill="white"/>
<path d="M175.838 33.7712C174.254 33.7712 172.869 32.9402 172.275 32.4252C172.077 32.6235 171.721 33.2172 171.642 33.7712H170.89V28.3092H171.682C171.998 30.9215 173.819 32.4652 176.155 32.4652C177.421 32.4652 178.451 31.7529 178.451 30.5655C178.451 29.5365 177.54 28.7445 175.917 27.9925L173.661 26.9239C172.077 26.1712 170.89 24.8649 170.89 23.1235C170.89 21.2235 172.671 19.6009 175.125 19.6009C176.432 19.6009 177.54 20.0759 178.213 20.6299C178.411 20.4715 178.609 20.0359 178.727 19.5605H179.479V24.2319H178.648C178.371 22.3712 177.342 20.8275 175.244 20.8275C174.136 20.8275 173.106 21.4609 173.106 22.4509C173.106 23.4799 173.938 24.0339 175.838 24.9049L178.015 25.9735C179.915 26.8839 180.667 28.3492 180.667 29.5365C180.667 32.0299 178.49 33.7712 175.838 33.7712Z" fill="white"/>
<path d="M3.56934 24.4203C3.56934 31.3543 7.599 37.3467 13.4423 40.1863L5.086 17.291C4.114 19.4697 3.56934 21.8807 3.56934 24.4203Z" fill="white"/>
<path d="M32.9138 23.5357C32.9138 21.3707 32.1362 19.8713 31.4692 18.7043C30.5812 17.2613 29.7488 16.0393 29.7488 14.5963C29.7488 12.986 30.9702 11.487 32.6905 11.487C32.7682 11.487 32.8418 11.4967 32.9175 11.501C29.8008 8.64568 25.6485 6.90234 21.0878 6.90234C14.9678 6.90234 9.58351 10.0423 6.45117 14.7983C6.86217 14.8107 7.24951 14.8193 7.57851 14.8193C9.41084 14.8193 12.2472 14.597 12.2472 14.597C13.1915 14.5413 13.3028 15.9283 12.3595 16.04C12.3595 16.04 11.4105 16.1517 10.3545 16.207L16.7338 35.182L20.5675 23.6843L17.8382 16.2063C16.8948 16.151 16.0012 16.0393 16.0012 16.0393C15.0572 15.984 15.1678 14.5407 16.1118 14.5963C16.1118 14.5963 19.0048 14.8187 20.7262 14.8187C22.5582 14.8187 25.3948 14.5963 25.3948 14.5963C26.3398 14.5407 26.4508 15.9277 25.5072 16.0393C25.5072 16.0393 24.5562 16.151 23.5022 16.2063L29.8328 35.0377L31.5802 29.1987C32.3375 26.7757 32.9138 25.0353 32.9138 23.5357Z" fill="white"/>
<path d="M21.3956 25.9521L16.1396 41.2251C17.709 41.6865 19.3686 41.9388 21.0883 41.9388C23.1283 41.9388 25.0846 41.5861 26.9056 40.9458C26.8586 40.8708 26.816 40.7911 26.781 40.7045L21.3956 25.9521Z" fill="white"/>
<path d="M36.4586 16.0156C36.5339 16.5736 36.5766 17.1726 36.5766 17.817C36.5766 19.5946 36.2446 21.593 35.2446 24.0916L29.8936 39.5626C35.1016 36.5256 38.6046 30.8833 38.6046 24.4206C38.6049 21.375 37.8269 18.511 36.4586 16.0156Z" fill="white"/>
<path d="M21.0877 4C9.82799 4 0.666992 13.1603 0.666992 24.42C0.666992 35.681 9.82799 44.841 21.0877 44.841C32.347 44.841 41.5093 35.681 41.5093 24.42C41.509 13.1603 32.347 4 21.0877 4ZM21.0877 43.905C10.3443 43.905 1.60333 35.164 1.60333 24.42C1.60333 13.6767 10.344 4.93633 21.0877 4.93633C31.8307 4.93633 40.571 13.6767 40.571 24.42C40.571 35.164 31.8307 43.905 21.0877 43.905Z" fill="white"/>
</g>
<defs>
<clipPath id="clip0_6072_439">
<rect width="180" height="40.841" fill="white" transform="translate(0.666992 4)"/>
</clipPath>
</defs>
</svg>
