<svg width="181" height="48" viewBox="0 0 181 48" fill="none" xmlns="http://www.w3.org/2000/svg">
<path d="M62.5962 16.6628C63.2008 16.6628 63.7191 16.5764 64.2373 16.49C64.5828 16.4036 64.9283 16.3173 65.101 16.3173C65.4465 16.3173 65.7056 16.49 66.0511 16.9219C66.3966 17.3537 66.6557 17.7856 66.9149 18.4766C67.0876 19.0812 67.174 19.8585 67.0876 20.5495C67.0012 21.1541 66.8285 21.586 66.483 21.9315C66.1375 22.277 65.7056 22.4497 65.1874 22.4497C64.7555 22.4497 64.4101 22.277 64.2373 22.1042C63.9782 21.8451 63.8055 21.4996 63.6327 21.0678C63.46 20.6359 63.2872 20.2904 63.2009 20.1177C63.1145 19.9449 62.8554 19.7722 62.6826 19.7722C62.1644 19.7722 61.9053 20.204 61.7325 21.1541L60.9552 28.1503C60.8688 28.9276 60.8688 29.3595 61.0415 29.5322C61.2143 29.705 61.4734 29.8777 61.9916 30.1369C62.4235 30.396 62.5962 30.7415 62.5962 31.0869C62.5099 31.5188 62.1644 31.9507 61.5598 32.2962C60.9552 32.6417 59.746 32.8144 58.0185 32.8144C54.65 32.8144 53.0953 32.2098 53.1817 31.0869C53.1817 30.7415 53.3544 30.4823 53.4408 30.4823C53.6135 30.396 53.8726 30.3096 54.3045 30.1369C54.7364 29.9641 54.9955 29.7914 55.0818 29.5322C55.2546 29.1868 55.5137 28.323 55.6865 27.1138L56.4638 22.1042L56.5502 21.586C56.6365 20.8086 56.6365 20.2904 56.5502 20.0313C56.4638 19.8585 56.2911 19.6858 56.1183 19.6858C55.9456 19.6858 55.6865 19.7722 55.6001 19.9449C55.4273 20.1177 55.1682 20.3768 54.8227 20.895C54.4772 21.3269 54.0454 21.7587 53.7863 21.9315C53.4408 22.1906 53.0953 22.277 52.7498 22.277C52.4043 22.277 52.0588 22.1042 51.8861 21.7587C51.7133 21.4132 51.627 21.2405 51.627 20.8086C51.7133 20.204 51.9724 19.5131 52.3179 18.8221C52.6634 18.1311 53.0953 17.5265 53.6135 17.0946C54.0454 16.6628 54.5636 16.4036 54.9091 16.4036C54.9091 16.4036 55.2546 16.49 55.6865 16.5764C56.2911 16.6628 56.8957 16.7491 57.5003 16.7491L62.5962 16.6628ZM72.6154 27.6321L73.3928 21.8451C73.3928 21.4996 73.3928 21.3269 73.3928 21.1541C73.3064 20.9814 73.1337 20.9814 72.8746 20.9814C71.9245 20.9814 70.8016 21.0678 69.4197 21.3269C68.0377 21.4996 67.2604 21.9315 67.174 22.5361C67.174 22.8816 67.2604 23.2271 67.5195 23.3998C67.7786 23.5726 68.0377 23.8317 68.1241 24.0908C68.2968 24.3499 68.2968 25.0409 68.1241 25.991L68.0377 27.4593C67.865 28.5822 67.865 29.5322 67.865 30.3096C67.9513 31.0869 68.2104 31.6916 68.6423 32.1234C69.0742 32.5553 69.8515 32.8144 70.9744 32.8144C71.4062 32.8144 71.7517 32.728 72.0972 32.6417C72.4427 32.4689 72.7882 32.2962 73.1337 32.1234C73.4792 31.9507 73.7383 31.7779 73.911 31.6052C74.0838 31.4324 74.2565 31.4324 74.3429 31.4324C74.602 31.4324 74.6884 31.6052 74.6884 31.8643C74.6884 32.2098 74.6884 32.3825 74.7747 32.5553C74.8611 32.728 75.1202 32.728 75.5521 32.728C76.0703 32.728 76.6749 32.6417 77.5387 32.5553C78.316 32.3825 79.0934 32.2098 79.698 31.9507C80.3026 31.6052 80.6481 31.2597 80.7344 30.8278C80.7344 30.5687 80.7344 30.396 80.6481 30.3096C80.5617 30.2232 80.4753 30.1369 80.2162 29.9641C80.0435 29.8777 79.8707 29.7914 79.7843 29.6186C79.698 29.4459 79.698 29.2731 79.698 28.9276L80.3026 24.3499C80.3026 24.0908 80.389 23.7453 80.4753 23.3134C80.5617 22.8816 80.6481 22.4497 80.6481 22.277C80.7344 21.4132 80.4753 20.9814 79.698 20.9814C79.2661 20.9814 78.6615 20.9814 77.7978 21.1541C77.0204 21.2405 76.2431 21.4132 75.5521 21.586C74.8611 21.8451 74.5156 22.1042 74.4293 22.5361C74.4293 22.7088 74.4293 22.8816 74.5156 22.9679C74.602 23.0543 74.6884 23.1407 74.8611 23.3134C75.0339 23.4862 75.2066 23.5726 75.293 23.6589C75.3794 23.8317 75.4657 24.0044 75.4657 24.2635C75.4657 24.6954 75.3794 25.5591 75.2066 26.682L75.1202 27.4593C75.0339 28.1503 74.8611 28.7549 74.6884 29.1868C74.4293 29.6186 74.0838 29.8777 73.5655 29.8777C73.0473 29.8777 72.7882 29.6186 72.6154 29.1868C72.6154 28.8413 72.6154 28.323 72.6154 27.6321ZM83.2392 25.6455C83.3256 25.1273 83.3256 24.7818 83.2392 24.609C83.1529 24.4363 82.9801 24.2635 82.8074 24.1772C82.5483 24.0908 82.4619 24.0044 82.3755 23.918C82.2891 23.8317 82.2891 23.6589 82.3755 23.3134C82.4619 22.7952 82.8074 22.3633 83.6711 22.0179C84.4484 21.6724 85.3122 21.4132 86.1759 21.2405C87.0396 21.0678 87.6442 20.9814 87.817 20.9814C88.1625 20.9814 88.4216 21.0678 88.5079 21.1541C88.5943 21.2405 88.5943 21.586 88.5943 21.9315V22.5361C88.5943 22.7088 88.6807 22.7088 88.8534 22.7088C88.9398 22.7088 89.1989 22.5361 89.458 22.1906C89.8035 21.8451 90.0627 21.4996 90.4081 21.2405C90.7536 20.9814 91.1855 20.895 91.7037 20.895C92.3947 20.895 92.9129 21.1541 93.3448 21.6724C93.6903 22.1906 93.863 22.7952 93.7767 23.5726C93.6903 24.0908 93.5175 24.5227 93.2584 24.9545C92.9129 25.3864 92.6538 25.7319 92.222 25.9046C91.7901 26.1637 91.3582 26.2501 90.84 26.2501C90.4081 26.2501 90.149 26.1637 89.8899 25.991C89.6308 25.8182 89.458 25.6455 89.1989 25.3864C88.9398 25.1273 88.7671 24.9545 88.6807 24.9545C88.3352 24.9545 88.1625 25.3864 87.9897 26.3365L87.9033 26.8547C87.817 27.6321 87.7306 28.4094 87.7306 29.3595C87.7306 29.5322 87.817 29.705 87.9033 29.7914C88.0761 29.8777 88.2488 29.9641 88.5079 30.0505C88.7671 30.1369 88.9398 30.2232 89.1126 30.396C89.2853 30.5687 89.2853 30.7415 89.2853 31.0869C89.1989 31.5188 89.0262 31.8643 88.6807 32.1234C88.3352 32.3825 87.817 32.4689 87.2124 32.5553C86.6078 32.6417 85.8304 32.6417 84.8803 32.6417C82.2891 32.6417 81.0799 32.1234 81.2527 31.0869C81.2527 30.9142 81.339 30.7415 81.4254 30.5687C81.5118 30.396 81.6845 30.2232 81.9437 30.1369C82.2028 29.9641 82.3755 29.7914 82.3755 29.7914C82.4619 29.705 82.5483 29.6186 82.6346 29.4459C82.8937 28.9276 83.0665 28.0639 83.1529 26.9411L83.2392 25.6455ZM100.082 22.0179C100.082 22.277 100.082 22.3633 100.168 22.3633C100.168 22.3633 100.427 22.1906 100.773 21.9315C101.118 21.6724 101.55 21.4132 102.068 21.2405C102.5 21.0678 103.019 20.895 103.623 20.895C104.4 20.895 105.005 21.0678 105.61 21.4996C106.214 21.9315 106.646 22.5361 106.905 23.3134C107.164 24.0908 107.251 24.9545 107.164 25.9046C106.992 27.2002 106.56 28.323 105.955 29.3595C105.264 30.396 104.4 31.2597 103.364 31.8643C102.328 32.4689 101.205 32.8144 99.9955 32.8144C99.2181 32.8144 98.5271 32.728 98.0089 32.4689C97.4907 32.2962 96.9724 32.037 96.627 31.6916C96.1951 31.4324 96.0224 31.2597 95.936 31.2597C95.8496 31.2597 95.5905 31.3461 95.3314 31.4324C94.9859 31.5188 94.7268 31.6052 94.4676 31.6052C94.0358 31.6052 93.863 31.4324 93.863 31.1733C93.863 31.0869 93.9494 30.9142 94.0358 30.5687C94.2085 30.2232 94.2949 29.7914 94.3813 29.1868C94.554 28.6685 94.6404 27.9775 94.7268 27.1138L95.5041 21.0678C95.5041 20.7223 95.5041 20.5495 95.3314 20.4631C95.245 20.2904 94.9859 20.204 94.8131 20.1177C94.554 20.0313 94.3813 19.8585 94.2949 19.7722C94.2085 19.5994 94.1222 19.4267 94.1222 19.1676C94.2085 18.7357 94.554 18.3038 95.3314 17.872C96.1087 17.4401 96.8861 17.181 97.9225 16.9219C98.8726 16.6628 99.7364 16.5764 100.341 16.5764C100.6 16.5764 100.686 16.6628 100.773 16.8355C100.773 17.0083 100.773 17.2674 100.773 17.6129L100.082 22.0179ZM100.859 24.4363C100.427 24.4363 100.168 24.609 99.9955 24.8681C99.8227 25.2136 99.65 25.5591 99.65 25.991C99.4772 27.4593 99.3045 28.4958 99.3045 29.1868C99.3045 29.8777 99.3045 30.2232 99.4772 30.4823C99.65 30.6551 99.8227 30.8278 100.082 30.8278C101.118 30.8278 101.809 29.8777 102.068 27.9775C102.155 27.2002 102.155 26.4228 101.982 25.6455C101.896 24.7818 101.464 24.4363 100.859 24.4363ZM107.683 27.2866C107.855 26.3365 108.114 25.3864 108.546 24.609C108.978 23.8317 109.583 23.1407 110.36 22.6225C111.051 22.1042 111.828 21.6724 112.692 21.4132C113.556 21.1541 114.42 20.9814 115.283 20.9814C116.493 20.9814 117.443 21.3269 118.22 21.8451C118.997 22.4497 119.602 23.1407 119.947 24.0908C120.293 25.0409 120.379 25.9046 120.293 26.8547C120.12 28.0639 119.688 29.1004 118.911 29.9641C118.134 30.9142 117.184 31.6052 116.061 32.1234C114.938 32.6417 113.815 32.9008 112.779 32.9008C112.001 32.9008 111.224 32.728 110.619 32.5553C109.928 32.2962 109.41 31.9507 108.892 31.5188C108.46 31.0869 108.028 30.4823 107.855 29.7914C107.596 28.9276 107.596 28.1503 107.683 27.2866ZM114.074 23.5726C113.729 23.5726 113.47 23.7453 113.297 24.0044C113.038 24.2635 112.951 24.609 112.865 24.9545C112.779 26.0774 112.865 27.2002 113.038 28.323C113.21 29.4459 113.556 29.9641 114.247 30.0505C114.852 30.0505 115.283 29.6186 115.37 28.6685C115.456 28.2367 115.456 27.5457 115.456 26.7683C115.456 25.991 115.283 25.2136 115.111 24.609C114.852 23.918 114.506 23.5726 114.074 23.5726ZM124.612 21.8451C124.698 20.9814 125.043 20.1177 125.648 19.2539C126.253 18.3902 127.03 17.6992 128.066 17.0946C129.103 16.49 130.226 16.2309 131.521 16.2309C131.953 16.2309 132.299 16.2309 132.731 16.4036C133.162 16.5764 133.508 16.5764 133.94 16.7491C134.372 16.9219 134.544 16.9219 134.631 16.9219C134.717 16.9219 134.89 16.9219 135.063 16.7491C135.235 16.5764 135.495 16.5764 135.667 16.5764C135.926 16.5764 136.186 16.7491 136.531 17.0946C136.876 17.4401 137.136 17.9584 137.308 18.4766C137.481 19.0812 137.567 19.6858 137.481 20.2904C137.395 20.7223 137.308 21.0678 137.049 21.4132C136.79 21.7587 136.445 21.8451 136.099 21.8451C135.754 21.8451 135.495 21.7587 135.322 21.586C135.149 21.4132 134.804 21.0678 134.372 20.6359C133.94 20.204 133.594 19.8585 133.249 19.5994C132.903 19.3403 132.471 19.2539 131.953 19.2539C131.608 19.2539 131.262 19.3403 131.003 19.5994C130.658 19.7722 130.571 20.1177 130.485 20.4631C130.399 20.895 130.571 21.2405 130.83 21.4132C131.09 21.6724 131.608 21.8451 132.385 22.1906C133.162 22.4497 133.767 22.6225 134.199 22.7952C134.631 22.9679 135.063 23.2271 135.495 23.6589C136.099 24.0908 136.531 24.6954 136.79 25.3864C137.049 25.991 137.136 26.7683 136.963 27.6321C136.79 28.5822 136.531 29.5322 135.926 30.4823C135.322 31.4324 134.458 32.1234 133.335 32.728C132.212 33.3326 130.917 33.5917 129.362 33.5917C128.585 33.5917 127.721 33.5054 126.771 33.2463C125.821 32.9871 125.043 32.8144 124.525 32.4689C124.18 32.2962 124.007 31.8643 123.834 31.4324C123.662 30.9142 123.575 30.396 123.489 29.705C123.489 29.1004 123.489 28.5822 123.489 28.1503C123.489 27.8048 123.662 27.4593 123.834 27.2002C124.007 26.9411 124.266 26.8547 124.525 26.8547C124.871 26.8547 125.13 27.0274 125.303 27.4593C125.562 27.8912 125.734 28.323 125.994 28.8413C126.253 29.3595 126.598 29.7914 127.116 30.0505C127.548 30.396 128.326 30.5687 129.189 30.5687C129.535 30.5687 129.88 30.4823 130.312 30.2232C130.744 30.0505 130.917 29.7914 131.003 29.3595C131.003 28.9276 130.917 28.6685 130.658 28.4094C130.399 28.2367 129.88 27.9775 129.276 27.7184C128.671 27.4593 128.066 27.2002 127.548 26.9411C127.116 26.682 126.598 26.3365 126.166 25.9046C125.648 25.3 125.216 24.6954 124.957 24.0044C124.612 23.3998 124.525 22.6225 124.612 21.8451ZM143.441 26.5956L144.305 29.705C144.65 30.7415 144.823 31.5188 144.995 31.9507C145.168 32.3825 145.255 32.6417 145.341 32.728C145.427 32.8144 145.514 32.9008 145.686 32.9008C145.859 32.9008 146.118 32.728 146.377 32.2962C146.637 31.8643 146.982 31.3461 147.328 30.5687C147.673 29.7914 147.932 29.3595 148.019 29.1868C148.278 28.6685 148.537 28.1503 148.796 27.6321C149.055 27.2002 149.314 26.682 149.573 26.4228C149.832 26.0774 150.005 25.9046 150.264 25.9046C150.523 25.9046 150.61 26.5092 150.437 27.6321C150.351 28.1503 150.264 28.6685 150.178 29.2731C150.091 29.8777 150.005 30.2232 149.919 30.3096C149.832 30.4823 149.746 30.6551 149.66 30.7415C149.573 30.8278 149.4 31.0006 149.228 31.1733C149.055 31.3461 148.882 31.5188 148.796 31.6052C148.709 31.7779 148.623 31.9507 148.623 32.037C148.537 32.6417 148.882 32.9871 149.573 33.1599C150.264 33.3326 151.128 33.419 152.251 33.419C153.287 33.419 154.237 33.3326 155.015 33.0735C155.792 32.9008 156.224 32.4689 156.31 31.8643C156.31 31.6052 156.31 31.4324 156.224 31.3461C156.138 31.2597 156.051 31.087 155.792 30.9142C155.619 30.7415 155.447 30.5687 155.36 30.3096C155.274 30.1369 155.187 29.7914 155.274 29.3595C155.533 25.8182 155.706 24.0908 155.706 24.1772C155.792 23.5726 155.878 22.7088 156.138 21.6724C156.31 20.6359 156.483 19.9449 156.569 19.6858C156.656 19.4267 156.828 19.2539 157.174 18.9084L157.779 18.3038C157.865 18.2175 157.951 17.9584 157.951 17.6992C158.124 16.6628 157.088 16.1445 155.101 16.1445C154.41 16.1445 153.892 16.1445 153.46 16.3173C153.028 16.49 152.683 16.5764 152.424 16.7491C152.164 16.9219 151.905 17.2674 151.646 17.6992C151.387 18.1311 151.128 18.563 150.869 19.0812C150.696 19.3403 150.437 19.8585 149.919 20.8086C149.487 21.6724 149.055 22.3633 148.796 22.7952C148.537 23.2271 148.278 23.3998 148.019 23.3998C147.759 23.3134 147.5 22.9679 147.241 22.3633C146.982 21.7587 146.723 20.895 146.377 19.8585C146.032 18.8221 145.859 18.1311 145.773 17.872C145.6 17.3537 145.427 17.0946 145.427 16.9219C145.341 16.7491 145.255 16.6628 145.082 16.5764C144.909 16.4036 144.65 16.4036 144.305 16.3173C143.959 16.2309 143.527 16.2309 142.923 16.2309C141.886 16.2309 141.022 16.4036 140.331 16.5764C139.554 16.8355 139.209 17.2674 139.122 17.872C139.122 18.1311 139.122 18.3902 139.295 18.4766C139.468 18.6493 139.64 18.8221 139.9 18.9948C140.159 19.1676 140.331 19.3403 140.331 19.4267C140.504 19.9449 140.504 20.8086 140.331 22.1042C140.159 23.6589 139.986 25.0409 139.727 26.1637C139.468 27.2866 139.295 28.4958 139.036 29.7914C138.949 30.2232 138.863 30.5687 138.69 30.7415C138.518 30.9142 138.345 31.0869 138.086 31.1733C137.827 31.2597 137.654 31.3461 137.567 31.4324C137.481 31.5188 137.395 31.7779 137.308 32.037C137.222 32.9008 138.086 33.3326 139.813 33.3326C141.886 33.3326 142.923 32.9008 143.095 31.9507C143.095 31.6052 143.009 31.3461 142.75 31.1733C142.491 31.0006 142.318 30.8278 142.145 30.6551C141.972 30.4823 141.972 30.0505 142.059 29.2731C142.059 29.1868 142.059 28.9276 142.145 28.5822C142.145 28.1503 142.232 27.8912 142.232 27.5457C142.404 26.0774 142.663 25.3 143.009 25.3C143.182 25.3 143.354 25.3864 143.354 25.5591C143.268 26.0774 143.354 26.3365 143.441 26.5956ZM158.556 21.8451C158.642 20.9814 158.988 20.1177 159.592 19.2539C160.197 18.3902 160.974 17.6992 162.011 17.0946C163.047 16.49 164.17 16.2309 165.466 16.2309C165.898 16.2309 166.243 16.2309 166.675 16.4036C167.107 16.49 167.452 16.5764 167.884 16.7491C168.316 16.9219 168.489 16.9219 168.575 16.9219C168.661 16.9219 168.834 16.9219 169.007 16.7491C169.18 16.5764 169.439 16.5764 169.612 16.5764C169.871 16.5764 170.13 16.7491 170.475 17.0946C170.821 17.4401 171.08 17.9584 171.253 18.4766C171.425 19.0812 171.512 19.6858 171.425 20.2904C171.339 20.7223 171.253 21.0678 170.994 21.4132C170.734 21.7587 170.389 21.8451 170.043 21.8451C169.698 21.8451 169.439 21.7587 169.266 21.586C169.093 21.4132 168.748 21.0678 168.316 20.6359C167.884 20.204 167.539 19.8585 167.193 19.5994C166.848 19.3403 166.416 19.2539 165.898 19.2539C165.552 19.2539 165.207 19.3403 164.947 19.5994C164.602 19.7722 164.516 20.1177 164.429 20.4631C164.343 20.895 164.516 21.2405 164.775 21.4132C165.034 21.6724 165.552 21.8451 166.329 22.1906C167.107 22.4497 167.711 22.6225 168.143 22.7952C168.575 22.9679 169.007 23.2271 169.439 23.6589C170.043 24.0908 170.475 24.6954 170.734 25.3864C170.994 26.0774 171.08 26.7683 170.907 27.6321C170.734 28.5822 170.475 29.5322 169.871 30.4823C169.266 31.4324 168.402 32.1234 167.28 32.728C166.157 33.3326 164.861 33.5917 163.306 33.5917C162.529 33.5917 161.665 33.5054 160.715 33.2463C159.765 32.9871 158.988 32.8144 158.47 32.4689C158.124 32.2962 157.951 31.8643 157.779 31.4324C157.606 30.9142 157.519 30.396 157.433 29.705C157.433 29.1004 157.433 28.5822 157.433 28.1503C157.433 27.8048 157.606 27.4593 157.779 27.2002C157.951 26.9411 158.21 26.8547 158.47 26.8547C158.815 26.8547 159.074 27.0274 159.247 27.4593C159.506 27.8912 159.679 28.323 159.938 28.8413C160.197 29.3595 160.543 29.7914 161.061 30.0505C161.493 30.396 162.27 30.5687 163.134 30.5687C163.479 30.5687 163.825 30.4823 164.257 30.2232C164.688 30.0505 164.861 29.7914 164.947 29.3595C164.947 28.9276 164.861 28.6685 164.602 28.4094C164.343 28.2367 163.825 27.9775 163.22 27.7184C162.615 27.4593 162.011 27.2002 161.493 26.9411C161.061 26.682 160.543 26.3365 160.111 25.9046C159.592 25.3 159.161 24.6954 158.901 24.0044C158.556 23.3998 158.47 22.6225 158.556 21.8451Z" fill="white"/>
<path fill-rule="evenodd" clip-rule="evenodd" d="M21.4825 16.4033H41.6073C42.3847 16.4033 42.9893 17.0079 42.9893 17.7853V31.2594C42.9893 32.0367 42.3847 32.6413 41.6073 32.6413H21.4825C20.7052 32.6413 20.1006 32.0367 20.1006 31.2594V17.7853C20.1006 17.0079 20.7052 16.4033 21.4825 16.4033ZM39.3619 18.3031C39.7074 17.9576 40.2256 17.9576 40.4848 18.3031C40.8303 18.6486 40.8303 19.1668 40.4848 19.4259L35.858 24.1471L40.4843 28.9277C40.8298 29.2732 40.8298 29.7914 40.4843 30.0505C40.1388 30.396 39.6206 30.396 39.3615 30.0505L34.7463 25.2815L32.0203 28.0631C31.6748 28.4086 31.1566 28.4086 30.8974 28.0631L28.2094 25.3203L23.6417 29.9641C23.2962 30.3096 22.778 30.3096 22.5189 29.9641C22.1734 29.6187 22.1734 29.1004 22.5189 28.8413C22.5189 28.9094 25.7386 25.5968 27.1024 24.1906L22.4329 19.4259C22.0875 19.0804 22.0875 18.5622 22.4329 18.3031C22.7784 17.9576 23.2967 17.9576 23.5558 18.3031L28.4835 23.339C28.6159 23.3763 28.7352 23.4541 28.8241 23.5726C28.9238 23.6723 28.9948 23.7865 29.0369 23.9047L31.4157 26.3357L39.3619 18.3031Z" fill="#F9DB41"/>
<path d="M9.30396 30.3101C8.61298 30.3101 8.09475 29.7919 8.09475 29.1009C8.09475 28.4099 8.61298 27.8917 9.30396 27.8917H14.7454C15.4364 27.8917 15.9546 28.4099 15.9546 29.1009C15.9546 29.7919 15.4364 30.3101 14.7454 30.3101H9.30396ZM9.47671 20.9819C8.78573 20.9819 8.26749 20.4636 8.26749 19.7727C8.26749 19.0817 8.78573 18.5634 9.47671 18.5634H14.9182C15.6091 18.5634 16.1274 19.0817 16.1274 19.7727C16.1274 20.4636 15.6091 20.9819 14.9182 20.9819H9.47671ZM6.97191 25.4732C6.28093 25.4732 5.7627 24.955 5.7627 24.264C5.7627 23.573 6.28093 23.0548 6.97191 23.0548H12.4134C13.1043 23.0548 13.6226 23.573 13.6226 24.264C13.6226 24.955 13.1043 25.4732 12.4134 25.4732H6.97191ZM172.289 14.5903V11.3945H171.166V10.7036H174.275V11.3945H173.152V14.5903H172.289ZM174.707 14.5903V10.7036H175.916L176.607 13.3811L177.298 10.7036H178.507V14.5903H177.73V11.5673L176.953 14.6767H176.175L175.398 11.5673V14.6767H174.707V14.5903ZM122.02 12.431L121.847 10.6172L120.465 11.74L118.997 13.0356L117.01 12.6901L115.196 12.2583L115.887 13.9857L116.665 15.7995L115.628 17.527L114.678 19.0817L116.492 18.9089L118.479 18.7362L119.774 20.2045L120.983 21.5865L121.415 19.859L121.847 17.9588L123.661 17.1815L125.302 16.4041L123.747 15.454L122.02 14.4176V12.431ZM121.07 12.5174L121.329 14.9358L123.402 16.2314L121.156 17.1815L120.552 19.5999L118.91 17.7861L116.492 17.9588L117.701 15.7995L116.751 13.4675L119.17 13.9857L121.07 12.5174Z" fill="white"/>
<path d="M172.289 14.5903V11.3945H171.166V10.7036H174.276V11.3945H173.153V14.5903H172.289ZM174.708 14.5903V10.7036H175.917L176.608 13.3811L177.299 10.7036H178.508V14.5903H177.731V11.5673L176.953 14.6767H176.176L175.398 11.5673V14.6767H174.708V14.5903ZM122.02 12.431L121.848 10.6172L120.466 11.74L118.997 13.0356L117.011 12.6901L115.197 12.2583L115.888 13.9857L116.665 15.7995L115.629 17.527L114.679 19.0817L116.493 18.9089L118.479 18.7362L119.775 20.2045L120.984 21.5865L121.416 19.859L121.848 17.9588L123.661 17.1815L125.303 16.4041L123.748 15.454L122.02 14.4176V12.431ZM121.07 12.5174L121.329 14.9358L123.402 16.2314L121.157 17.1815L120.552 19.5999L118.911 17.7861L116.493 17.9588L117.702 15.7995L116.752 13.4675L119.17 13.9857L121.07 12.5174Z" fill="white"/>
</svg>
