<svg width="180" height="49" viewBox="0 0 180 49" fill="none" xmlns="http://www.w3.org/2000/svg">
<g clip-path="url(#clip0_6072_317)">
<path fill-rule="evenodd" clip-rule="evenodd" d="M81.6328 8.64258C81.6328 8.64258 81.6328 8.64258 84.4597 8.64258C85.4897 8.64258 86.0086 9.15149 86.0086 10.3004C86.0086 10.3004 86.0086 10.3004 86.0086 14.3717C86.0086 14.3717 86.0086 14.3717 91.5462 14.3717C91.5462 14.3717 91.5462 14.3717 91.5462 10.3004C91.5462 9.15149 92.0574 8.64258 93.2191 8.64258C93.2191 8.64258 93.2191 8.64258 95.922 8.64258C95.922 8.64258 95.922 8.64258 95.922 11.3182C95.922 11.3182 95.922 11.3182 94.7681 11.3182L94.6364 11.4493C94.6364 11.4493 94.6364 11.4493 94.6364 22.9076C94.6364 22.9076 94.6364 22.9076 91.5462 22.9076C91.5462 22.9076 91.5462 22.9076 91.5462 17.1785C91.5462 17.1785 91.5462 17.1785 86.0086 17.1785C86.0086 17.1785 86.0086 17.1785 86.0086 22.9076C86.0086 22.9076 86.0086 22.9076 82.9185 22.9076C82.9185 22.9076 82.9185 22.9076 82.9185 11.4493C82.9185 11.4493 82.9185 11.3182 82.7868 11.3182C82.7868 11.3182 82.7868 11.3182 81.6328 11.3182C81.6328 11.3182 81.6328 11.3182 81.6328 8.64258Z" fill="#ED1C24"/>
<path fill-rule="evenodd" clip-rule="evenodd" d="M104.032 8.38867L104.102 8.39638V11.3342L104.032 11.3188C101.717 11.3188 99.9122 13.2311 99.9122 15.6523C99.9122 18.1969 101.717 20.2325 104.032 20.2325L104.102 20.2171V23.1549L104.032 23.1626C99.9122 23.1626 96.5664 19.8547 96.5664 15.6523C96.5664 11.5733 99.9122 8.38867 104.032 8.38867Z" fill="#ED1C24"/>
<path fill-rule="evenodd" clip-rule="evenodd" d="M104.102 8.39551L105.534 8.53431C108.934 9.19744 111.498 12.0813 111.498 15.6514C111.498 19.3218 108.934 22.3213 105.534 23.0076L104.102 23.1541V20.2162L105.674 19.877C107.192 19.183 108.284 17.556 108.284 15.6514C108.284 13.8317 107.192 12.3049 105.674 11.6572L104.102 11.3333V8.39551Z" fill="#ED1C24"/>
<path fill-rule="evenodd" clip-rule="evenodd" d="M112.141 8.64258C112.141 8.64258 112.141 8.64258 116.454 8.64258H118.515V11.3182H118.321C118.065 11.3182 117.547 11.3182 116.516 11.3182C116.516 11.3182 116.516 11.3182 116.516 14.2484C116.516 14.2484 116.516 14.2484 117.392 14.2484H118.515V16.7929H117.856C117.531 16.7929 117.097 16.7929 116.516 16.7929C116.516 16.7929 116.516 16.7929 116.516 19.9775C116.516 20.1086 116.516 20.1086 116.648 20.1086C116.648 20.1086 116.648 20.1086 117.57 20.1086H118.515V22.9076H118.244C117.779 22.9076 116.842 22.9076 114.975 22.9076C113.945 22.9076 113.434 22.3987 113.434 21.2498V11.3182C113.434 11.3182 113.434 11.3182 112.141 11.3182C112.141 11.3182 112.141 11.3182 112.141 8.64258Z" fill="#ED1C24"/>
<path fill-rule="evenodd" clip-rule="evenodd" d="M118.515 8.64258H118.577C121.411 8.64258 123.084 10.1693 123.084 12.4672C123.084 13.8628 122.441 14.7573 121.798 15.3973C122.96 15.9062 123.727 17.1785 123.727 18.5741C123.727 21.2498 121.667 22.9076 118.708 22.9076C118.708 22.9076 118.708 22.9076 118.654 22.9076H118.515V20.1086H118.832C119.862 20.1086 120.513 19.4686 120.513 18.4508C120.513 17.4329 119.862 16.7929 118.832 16.7929C118.832 16.7929 118.832 16.7929 118.546 16.7929H118.515V14.2484H118.577C119.483 14.2484 119.994 13.6084 119.994 12.7216C119.994 11.8272 119.483 11.3182 118.577 11.3182C118.577 11.3182 118.577 11.3182 118.546 11.3182H118.515V8.64258Z" fill="#ED1C24"/>
<path fill-rule="evenodd" clip-rule="evenodd" d="M129.652 8.64258C129.652 8.64258 129.652 8.64258 130.953 8.64258H131.193V12.7216C131.07 12.9761 130.938 13.3539 130.938 13.7394C130.938 13.7394 130.938 13.7394 129.908 16.6696C129.908 16.6696 129.908 16.6696 131 16.6696H131.193V19.3375H130.496C130.101 19.3375 129.652 19.3375 129.141 19.3375C129.141 19.3375 129.141 19.3375 128.235 21.6354C127.979 22.5221 127.468 22.9076 126.438 22.9076C126.438 22.9076 126.438 22.9076 124.502 22.9076C124.502 22.9076 124.502 22.9076 124.502 20.1086C124.502 20.1086 124.502 20.1086 125.145 20.1086C125.408 20.1086 125.408 20.1086 125.532 19.9775C125.532 19.9775 125.532 19.9775 129.652 8.64258Z" fill="#ED1C24"/>
<path fill-rule="evenodd" clip-rule="evenodd" d="M131.192 8.64258H132.741C132.741 8.64258 132.741 8.64258 136.862 19.9775C136.986 20.1086 136.986 20.1086 137.241 20.1086C137.241 20.1086 137.241 20.1086 137.76 20.1086C137.76 20.1086 137.76 20.1086 137.76 22.9076C137.76 22.9076 137.76 22.9076 135.955 22.9076C134.925 22.9076 134.414 22.5221 134.151 21.5043C134.151 21.5043 134.151 21.5043 133.253 19.3375C133.253 19.3375 133.253 19.3375 131.518 19.3375H131.192V16.6696H132.478C132.478 16.6696 132.478 16.6696 131.456 13.7394C131.456 13.3539 131.324 12.9761 131.192 12.7216V8.64258Z" fill="#ED1C24"/>
<path fill-rule="evenodd" clip-rule="evenodd" d="M81.6338 26.9785C81.6338 26.9785 81.6338 26.9785 92.8328 26.9785C93.8629 26.9785 94.5057 27.4874 94.5057 28.6363C94.5057 28.6363 94.5057 28.6363 94.5057 38.3135C94.5057 38.4368 94.5057 38.4368 94.6374 38.4368C94.6374 38.4368 94.6374 38.4368 95.6674 38.4368C95.6674 38.4368 95.6674 38.4368 95.6674 41.2436C95.6674 41.2436 95.6674 41.2436 92.9645 41.2436C91.8028 41.2436 91.2916 40.7347 91.2916 39.5857C91.2916 39.5857 91.2916 39.5857 91.2916 29.7853C91.2916 29.7853 91.2916 29.6542 91.1599 29.6542C91.1599 29.6542 91.1599 29.6542 86.0096 29.6542C86.0096 29.6542 86.0096 29.6542 86.0096 41.2436C86.0096 41.2436 86.0096 41.2436 82.9194 41.2436C82.9194 41.2436 82.9194 41.2436 82.9194 29.6542C82.9194 29.6542 82.9194 29.6542 81.6338 29.6542C81.6338 29.6542 81.6338 29.6542 81.6338 26.9785Z" fill="#ED1C24"/>
<path fill-rule="evenodd" clip-rule="evenodd" d="M103.776 26.7236L103.838 26.7313V29.6692L103.776 29.6538C101.452 29.6538 99.6554 31.566 99.6554 33.9872C99.6554 36.5318 101.452 38.5675 103.776 38.5675L103.838 38.5521V41.4899L103.776 41.4976C99.6554 41.4976 96.4336 38.1819 96.4336 33.9872C96.4336 29.9082 99.6554 26.7236 103.776 26.7236Z" fill="#ED1C24"/>
<path fill-rule="evenodd" clip-rule="evenodd" d="M103.838 26.7334L105.317 26.8722C108.779 27.5353 111.242 30.4192 111.242 33.9893C111.242 37.6597 108.779 40.6592 105.317 41.3454L103.838 41.492V38.5541L105.472 38.2148C107.013 37.5209 108.028 35.8939 108.028 33.9893C108.028 32.1695 107.013 30.6428 105.472 29.9951L103.838 29.6712V26.7334Z" fill="#ED1C24"/>
<path fill-rule="evenodd" clip-rule="evenodd" d="M111.885 26.9785C111.885 26.9785 111.885 26.9785 114.719 26.9785C115.749 26.9785 116.261 27.4874 116.261 28.6363C116.261 28.6363 116.261 28.6363 116.261 38.3135C116.261 38.4368 116.261 38.4368 116.392 38.4368C116.392 38.4368 116.392 38.4368 120.125 38.4368C120.125 38.4368 120.125 38.4368 120.125 26.9785C120.125 26.9785 120.125 26.9785 123.215 26.9785C123.215 26.9785 123.215 26.9785 123.215 38.4368C123.215 38.4368 123.215 38.4368 126.948 38.4368C127.08 38.4368 127.08 38.4368 127.08 38.3135C127.08 38.3135 127.08 38.3135 127.08 28.6363C127.08 27.4874 127.591 26.9785 128.621 26.9785C128.621 26.9785 128.621 26.9785 131.456 26.9785C131.456 26.9785 131.456 26.9785 131.456 29.6542C131.456 29.6542 131.456 29.6542 130.294 29.6542C130.163 29.6542 130.163 29.7853 130.163 29.7853C130.163 29.7853 130.163 29.7853 130.163 39.5857C130.163 40.7347 129.651 41.2436 128.621 41.2436C128.621 41.2436 128.621 41.2436 114.843 41.2436C113.689 41.2436 113.17 40.7347 113.17 39.5857C113.17 39.5857 113.17 39.5857 113.17 29.7853C113.17 29.7853 113.17 29.6542 113.046 29.6542C113.046 29.6542 113.046 29.6542 111.885 29.6542C111.885 29.6542 111.885 29.6542 111.885 26.9785Z" fill="#ED1C24"/>
<path fill-rule="evenodd" clip-rule="evenodd" d="M133.897 26.9785C133.897 26.9785 133.897 26.9785 143.555 26.9785C144.716 26.9785 145.104 27.4874 145.104 28.5053C145.104 28.5053 145.104 28.5053 145.104 30.9265H142.269C142.269 30.9265 142.269 30.9265 142.269 29.7853C142.269 29.6542 142.269 29.6542 142.137 29.6542C142.137 29.6542 142.137 29.6542 140.34 29.6542C140.34 29.6542 140.34 29.6542 140.34 41.2436C140.34 41.2436 140.34 41.2436 137.243 41.2436C137.243 41.2436 137.243 41.2436 137.243 29.6542C137.243 29.6542 137.243 29.6542 135.446 29.6542C135.314 29.6542 135.314 29.6542 135.314 29.7853C135.314 29.7853 135.314 29.7853 135.314 30.9265C135.314 30.9265 135.314 30.9265 132.479 30.9265C132.479 30.9265 132.479 30.9265 132.479 28.5053C132.479 27.4874 132.867 26.9785 133.897 26.9785Z" fill="#ED1C24"/>
<path fill-rule="evenodd" clip-rule="evenodd" d="M149.092 26.9785C149.092 26.9785 149.092 26.9785 150.393 26.9785H150.633V31.0576C150.501 31.312 150.377 31.6898 150.377 32.0754C150.377 32.0754 150.377 32.0754 149.347 35.0055C149.347 35.0055 149.347 35.0055 150.432 35.0055H150.633V37.6735H149.936C149.541 37.6735 149.092 37.6735 148.573 37.6735C148.573 37.6735 148.573 37.6735 147.674 39.8402C147.419 40.858 146.9 41.2436 145.87 41.2436C145.87 41.2436 145.87 41.2436 143.941 41.2436C143.941 41.2436 143.941 41.2436 143.941 38.4368C143.941 38.4368 143.941 38.4368 144.584 38.4368C144.848 38.4368 144.848 38.4368 144.971 38.3135C144.971 38.3135 144.971 38.3135 149.092 26.9785Z" fill="#ED1C24"/>
<path fill-rule="evenodd" clip-rule="evenodd" d="M150.632 26.9785H152.173C152.173 26.9785 152.173 26.9785 156.301 38.3135C156.425 38.4368 156.425 38.4368 156.688 38.4368H157.199C157.199 38.4368 157.199 38.4368 157.199 41.2436C157.199 41.2436 157.199 41.2436 155.395 41.2436C154.365 41.2436 153.854 40.858 153.59 39.8402C153.59 39.8402 153.59 39.8402 152.692 37.6735C152.692 37.6735 152.692 37.6735 150.957 37.6735H150.632V35.0055H151.917C151.917 35.0055 151.917 35.0055 150.887 32.0754C150.887 31.6898 150.763 31.312 150.632 31.0576V26.9785Z" fill="#ED1C24"/>
<path fill-rule="evenodd" clip-rule="evenodd" d="M61.7909 14.7107C61.938 14.6644 62.1316 14.7569 62.3253 15.0114C62.3253 15.0114 62.3253 15.0114 71.0769 23.5396C71.5881 24.0485 71.5881 24.8196 71.0769 25.1974C71.0769 25.1974 71.0769 25.1974 62.3253 33.8567C62.1316 34.1112 61.938 34.1728 61.7909 34.0957C61.6437 34.0186 61.5508 33.795 61.5508 33.4712V15.2659C61.5508 14.9497 61.6437 14.7569 61.7909 14.7107Z" fill="#ED1C24"/>
<path fill-rule="evenodd" clip-rule="evenodd" d="M46.8207 0.5H47.4403L48.0367 0.746748C48.0367 0.746748 48.0367 0.746747 57.0439 9.66048C57.4312 10.1694 57.2995 10.5549 56.6567 10.5549C56.6567 10.5549 56.6567 10.5549 52.9237 10.5549C52.2809 10.5549 51.7697 11.0639 51.7697 11.7039C51.7697 11.7039 51.7697 11.7039 51.7697 18.3198C51.7697 18.9598 51.2508 19.4687 50.4763 19.4687C50.4763 19.4687 50.4763 19.4687 43.9164 19.4687C43.2736 19.4687 42.7547 18.9598 42.7547 18.3198C42.7547 18.3198 42.7547 18.3198 42.7547 11.7039C42.7547 11.0639 42.2435 10.5549 41.593 10.5549H37.6044C36.9616 10.5549 36.8299 10.1694 37.2171 9.66048C37.2171 9.66048 37.2171 9.66048 46.2321 0.746748L46.8207 0.5Z" fill="#ED1C24"/>
<path fill-rule="evenodd" clip-rule="evenodd" d="M32.7093 14.5184C32.872 14.5955 32.9726 14.8191 32.9726 15.1429V33.7261C32.9726 34.0499 32.872 34.2427 32.7093 34.3044C32.5544 34.3661 32.3298 34.3044 32.0665 34.1116C32.0665 34.1116 32.0665 34.1116 23.1832 25.1979C22.672 24.82 22.672 24.049 23.1832 23.54C23.1832 23.54 23.1832 23.54 32.0665 14.7574C32.3298 14.5029 32.5544 14.4413 32.7093 14.5184Z" fill="#ED1C24"/>
<path fill-rule="evenodd" clip-rule="evenodd" d="M43.9166 29.1455C43.9166 29.1455 43.9166 29.1455 50.4765 29.1455C51.251 29.1455 51.7699 29.6544 51.7699 30.2944C51.7699 30.2944 51.7699 30.2944 51.7699 37.2959C51.7699 38.0592 52.281 38.5682 52.9238 38.5682H56.4013C57.0441 38.5682 57.2997 38.946 56.7885 39.3315C56.7885 39.3315 56.7885 39.3315 48.0369 48.1142C47.7735 48.3686 47.456 48.4997 47.1307 48.4997C46.8132 48.4997 46.4879 48.3686 46.2323 48.1142C46.2323 48.1142 46.2323 48.1142 37.4806 39.3315C36.9617 38.946 37.2173 38.5682 37.8601 38.5682C37.8601 38.5682 37.8601 38.5682 41.5932 38.5682C42.2437 38.5682 42.7549 38.0592 42.7549 37.2959C42.7549 37.2959 42.7549 37.2959 42.7549 30.2944C42.7549 29.6544 43.2738 29.1455 43.9166 29.1455Z" fill="#ED1C24"/>
</g>
<defs>
<clipPath id="clip0_6072_317">
<rect width="134.4" height="48" fill="white" transform="translate(22.7998 0.5)"/>
</clipPath>
</defs>
</svg>
