<svg width="180" height="48" viewBox="0 0 180 48" fill="none" xmlns="http://www.w3.org/2000/svg">
<g clip-path="url(#clip0_6072_425)">
<path d="M31.333 14.833V12.9997C31.333 12.0272 31.7193 11.0946 32.4069 10.4069C33.0946 9.71932 34.0272 9.33301 34.9997 9.33301H38.6663" stroke="#444CE7" stroke-width="3" stroke-linecap="round" stroke-linejoin="round"/>
<path d="M31.333 33.167V35.0003C31.333 35.9728 31.7193 36.9054 32.4069 37.593C33.0946 38.2807 34.0272 38.667 34.9997 38.667H38.6663" stroke="#444CE7" stroke-width="3" stroke-linecap="round" stroke-linejoin="round"/>
<path d="M53.333 9.33301H56.9997C57.9721 9.33301 58.9048 9.71932 59.5924 10.4069C60.28 11.0946 60.6663 12.0272 60.6663 12.9997V14.833" stroke="#444CE7" stroke-width="3" stroke-linecap="round" stroke-linejoin="round"/>
<path d="M53.333 38.667H56.9997C57.9721 38.667 58.9048 38.2807 59.5924 37.593C60.28 36.9054 60.6663 35.9728 60.6663 35.0003V33.167" stroke="#444CE7" stroke-width="3" stroke-linecap="round" stroke-linejoin="round"/>
<path d="M33.167 24H58.8337" stroke="#444CE7" stroke-width="3" stroke-linecap="round" stroke-linejoin="round"/>
</g>
<path d="M87.8613 19.0371C86.722 19.0371 85.8398 19.4668 85.2148 20.3262C84.5898 21.179 84.2773 22.3704 84.2773 23.9004C84.2773 27.084 85.472 28.6758 87.8613 28.6758C88.8639 28.6758 90.0781 28.4251 91.5039 27.9238V30.4629C90.332 30.9512 89.0234 31.1953 87.5781 31.1953C85.5013 31.1953 83.9128 30.5671 82.8125 29.3105C81.7122 28.0475 81.1621 26.2376 81.1621 23.8809C81.1621 22.3965 81.4323 21.0977 81.9727 19.9844C82.513 18.8646 83.2878 18.0085 84.2969 17.416C85.3125 16.8171 86.5007 16.5176 87.8613 16.5176C89.248 16.5176 90.6413 16.8529 92.041 17.5234L91.0645 19.9844C90.5306 19.7305 89.9935 19.5091 89.4531 19.3203C88.9128 19.1315 88.3822 19.0371 87.8613 19.0371ZM101.875 20.082H105.156L100.83 25.3164L105.537 31H102.158L97.6949 25.4629V31H94.7164V20.082H97.6949V25.3848L101.875 20.082ZM114.433 31L113.857 29.5156H113.779C113.277 30.1471 112.76 30.5866 112.226 30.834C111.698 31.0749 111.008 31.1953 110.155 31.1953C109.107 31.1953 108.28 30.8958 107.675 30.2969C107.076 29.6979 106.777 28.8451 106.777 27.7383C106.777 26.5794 107.18 25.7266 107.987 25.1797C108.801 24.6263 110.025 24.3203 111.659 24.2617L113.554 24.2031V23.7246C113.554 22.6178 112.987 22.0645 111.855 22.0645C110.982 22.0645 109.957 22.3281 108.779 22.8555L107.792 20.8438C109.049 20.1862 110.442 19.8574 111.972 19.8574C113.437 19.8574 114.56 20.1764 115.341 20.8145C116.122 21.4525 116.513 22.4225 116.513 23.7246V31H114.433ZM113.554 25.9414L112.402 25.9805C111.536 26.0065 110.891 26.1628 110.468 26.4492C110.045 26.7357 109.833 27.1719 109.833 27.7578C109.833 28.5977 110.315 29.0176 111.279 29.0176C111.969 29.0176 112.519 28.819 112.929 28.4219C113.346 28.0247 113.554 27.4974 113.554 26.8398V25.9414ZM122.968 20.082V24.2812H127.128V20.082H130.106V31H127.128V26.498H122.968V31H119.989V20.082H122.968ZM138.153 21.9961C137.521 21.9961 137.026 22.1979 136.668 22.6016C136.31 22.9987 136.105 23.5651 136.053 24.3008H140.233C140.22 23.5651 140.028 22.9987 139.657 22.6016C139.286 22.1979 138.784 21.9961 138.153 21.9961ZM138.573 31.1953C136.815 31.1953 135.441 30.7103 134.452 29.7402C133.462 28.7702 132.967 27.3965 132.967 25.6191C132.967 23.7897 133.423 22.377 134.334 21.3809C135.252 20.3783 136.519 19.877 138.133 19.877C139.676 19.877 140.877 20.3164 141.737 21.1953C142.596 22.0742 143.026 23.2884 143.026 24.8379V26.2832H135.985C136.017 27.1296 136.268 27.7904 136.737 28.2656C137.205 28.7409 137.863 28.9785 138.709 28.9785C139.367 28.9785 139.989 28.9102 140.575 28.7734C141.161 28.6367 141.773 28.4186 142.411 28.1191V30.4238C141.89 30.6842 141.333 30.8763 140.741 31C140.148 31.1302 139.426 31.1953 138.573 31.1953ZM151.844 31.1953C150.561 31.1953 149.555 30.7298 148.826 29.7988H148.67C148.774 30.7103 148.826 31.2376 148.826 31.3809V35.8047H145.848V20.082H148.27L148.689 21.498H148.826C149.523 20.4173 150.555 19.877 151.922 19.877C153.211 19.877 154.22 20.375 154.949 21.3711C155.678 22.3672 156.043 23.7507 156.043 25.5215C156.043 26.6868 155.87 27.6992 155.525 28.5586C155.187 29.418 154.702 30.0723 154.07 30.5215C153.439 30.9707 152.697 31.1953 151.844 31.1953ZM150.965 22.2598C150.229 22.2598 149.692 22.4876 149.354 22.9434C149.015 23.3926 148.839 24.138 148.826 25.1797V25.502C148.826 26.6738 148.999 27.5137 149.344 28.0215C149.695 28.5293 150.249 28.7832 151.004 28.7832C152.339 28.7832 153.006 27.6829 153.006 25.4824C153.006 24.4082 152.84 23.6042 152.508 23.0703C152.182 22.5299 151.668 22.2598 150.965 22.2598Z" fill="white"/>
<defs>
<clipPath id="clip0_6072_425">
<rect width="44" height="44" fill="white" transform="translate(24 2)"/>
</clipPath>
</defs>
</svg>
