<svg width="180" height="48" viewBox="0 0 180 48" fill="none" xmlns="http://www.w3.org/2000/svg">
<g clip-path="url(#clip0_6072_449)">
<path d="M17.8836 24.8254C17.8836 27.5098 17.0847 29.771 15.481 31.6014C13.8075 33.5192 11.633 34.4821 8.97105 34.4821C6.30208 34.4821 4.13459 33.5192 2.46102 31.6014C0.856718 29.771 0.0517578 27.5098 0.0517578 24.8254C0.0517578 22.1335 0.856718 19.8731 2.46102 18.0493C4.15317 16.1494 6.32778 15.1999 8.97105 15.1999C11.633 15.1999 13.8075 16.1494 15.481 18.0493C17.0847 19.8731 17.8836 22.1335 17.8836 24.8254ZM12.5837 24.8254C12.5837 23.6095 12.2924 22.5832 11.7092 21.7534C11.0567 20.8102 10.1435 20.3417 8.97105 20.3417C7.79817 20.3417 6.88535 20.8102 6.23217 21.7534C5.64292 22.5832 5.35132 23.6095 5.35132 24.8254C5.35132 26.0345 5.64292 27.0732 6.23217 27.9278C6.88535 28.871 7.79817 29.3403 8.97105 29.3403C10.1435 29.3403 11.0567 28.871 11.7092 27.9278C12.2924 27.0732 12.5837 26.0345 12.5837 24.8254ZM37.0464 24.8254C37.0464 27.3329 36.3237 29.5238 34.8719 31.3982C33.3189 33.4498 31.3157 34.4821 28.8816 34.4821C27.1634 34.4821 25.7059 33.9819 24.5141 32.9942C24.5141 33.2216 24.5395 33.7727 24.5904 34.6537C24.641 35.5393 24.666 36.2613 24.666 36.8313C24.666 39.9794 23.7278 41.5494 21.8519 41.5494C21.0845 41.5494 20.4574 41.2771 19.9563 40.7386C19.462 40.1946 19.2146 39.5411 19.2146 38.7695V18.2964C19.2146 17.5491 19.4683 16.9029 19.9753 16.3589C20.4823 15.8204 21.1102 15.5488 21.8582 15.5488C22.9861 15.5488 23.8104 16.1111 24.3304 17.2329C25.4396 15.8777 26.9547 15.1999 28.8752 15.1999C31.3157 15.1999 33.3125 16.2125 34.8719 18.2459C36.3174 20.1269 37.0464 22.3178 37.0464 24.8254ZM31.7465 24.8254C31.7465 23.6095 31.4493 22.5832 30.866 21.7534C30.2125 20.8102 29.3 20.3417 28.1272 20.3417C26.9547 20.3417 26.0419 20.8102 25.3887 21.7534C24.8054 22.5832 24.5141 23.6095 24.5141 24.8254C24.5141 26.0345 24.8054 27.0732 25.3887 27.9278C26.0419 28.871 26.9547 29.3403 28.1272 29.3403C29.3 29.3403 30.2125 28.871 30.866 27.9278C31.4493 27.0732 31.7465 26.0345 31.7465 24.8254ZM56.3294 24.256C56.3294 25.1416 56.12 25.7496 55.7016 26.0921C55.2835 26.4273 54.6306 26.5983 53.7494 26.5983H44.1837C44.1837 27.6116 44.6594 28.3901 45.6101 28.9342C46.3771 29.3593 47.3153 29.5751 48.4245 29.5751C49.2872 29.5751 50.3201 29.2891 51.5309 28.7264C52.7417 28.156 53.521 27.8769 53.8577 27.8769C54.4722 27.8769 54.9918 28.0988 55.4229 28.5548C55.8474 29.0047 56.0634 29.5491 56.0634 30.1763C56.0634 31.6256 54.9796 32.7541 52.8109 33.5642C51.1567 34.1718 49.4769 34.4821 47.7594 34.4821C44.9956 34.4821 42.7641 33.5642 41.059 31.7345C39.3535 29.9039 38.4982 27.6053 38.4982 24.8254C38.4982 22.1778 39.3854 19.9174 41.1602 18.031C42.9286 16.143 45.1288 15.1999 47.7528 15.1999C50.1933 15.1999 52.2343 16.0928 53.8703 17.8784C55.5052 19.6646 56.3294 21.792 56.3294 24.256ZM51.0302 22.9254C51.0046 22.1146 50.6308 21.3803 49.908 20.7148C49.1852 20.0503 48.4186 19.7215 47.6069 19.7215C46.7703 19.7215 45.9904 20.0503 45.2679 20.7148C44.5455 21.3803 44.1837 22.1146 44.1837 22.9254H51.0302ZM74.1354 31.3533C74.1354 32.1265 73.8885 32.7783 73.3946 33.323C72.8934 33.8618 72.2656 34.1342 71.4987 34.1342C69.6478 34.1342 68.7219 32.6649 68.7219 29.7331C68.7219 29.1694 68.7602 28.2831 68.8361 27.0609C68.9187 25.8447 68.957 24.952 68.957 24.3884C68.957 21.2785 67.9489 19.7215 65.9395 19.7215C63.9297 19.7215 62.9284 21.2785 62.9284 24.3884C62.9284 24.952 62.96 25.8447 63.0169 27.0609C63.0805 28.2831 63.1121 29.1694 63.1121 29.7331C63.1121 32.6649 62.1993 34.1342 60.3739 34.1342C59.6066 34.1342 58.9794 33.8618 58.4847 33.323C57.984 32.7783 57.7366 32.1265 57.7366 31.3533V18.2908C57.7366 17.5232 57.984 16.8721 58.4847 16.3462C58.9794 15.8141 59.6133 15.5488 60.3803 15.5488C61.648 15.5488 62.5288 16.1111 63.0232 17.2329C63.8791 15.8777 65.3939 15.1999 67.5621 15.1999C69.5715 15.1999 71.1691 15.7313 72.3419 16.7889C73.54 17.9233 74.1354 19.4803 74.1354 21.4628V31.3533ZM90.7624 30.7906C90.7624 31.9871 89.9841 32.9366 88.4238 33.634C87.1883 34.1969 85.8455 34.4862 84.4876 34.4821C81.8178 34.4821 79.6506 33.5192 77.9774 31.6014C76.3732 29.771 75.5682 27.5098 75.5682 24.8254C75.5682 22.1335 76.3862 19.8608 78.0278 17.9988C79.6694 16.1311 81.8178 15.1999 84.4876 15.1999C86.0277 15.1999 87.3525 15.4277 88.4563 15.8777C89.9956 16.4856 90.7624 17.435 90.7624 18.7271C90.7624 19.3789 90.5601 19.9553 90.154 20.4558C89.7486 20.9496 89.2281 21.203 88.5952 21.203C88.1632 21.203 87.5418 21.0574 86.7311 20.7731C85.9197 20.481 85.2738 20.3417 84.7986 20.3417C83.5365 20.3417 82.5537 20.7913 81.8503 21.6902C81.1972 22.501 80.8674 23.5396 80.8674 24.8254C80.8674 26.0345 81.159 27.0609 81.7495 27.8903C82.401 28.8594 83.3212 29.3403 84.4934 29.3403C85.0139 29.3403 85.7231 29.1883 86.6296 28.8773C87.5368 28.5744 88.1898 28.4161 88.5952 28.4161C89.1849 28.4161 89.691 28.6688 90.123 29.163C90.5478 29.6632 90.7624 30.2009 90.7624 30.7906ZM110.027 31.3533C110.027 32.1265 109.78 32.7783 109.285 33.323C108.785 33.8618 108.151 34.1342 107.383 34.1342C106.229 34.1342 105.406 33.5702 104.911 32.4494C103.802 33.805 102.287 34.4821 100.366 34.4821C97.9077 34.4821 95.8917 33.4498 94.3315 31.3982C92.9116 29.5238 92.1966 27.3329 92.1966 24.8254C92.1966 22.3178 92.9116 20.1269 94.3315 18.2459C95.9169 16.2125 97.9257 15.1999 100.366 15.1999C102.287 15.1999 103.802 15.8777 104.911 17.2329C105.406 16.1111 106.229 15.5488 107.383 15.5488C108.132 15.5488 108.76 15.8204 109.267 16.3589C109.773 16.9029 110.027 17.5428 110.027 18.2908V31.3533ZM104.728 24.8254C104.728 23.6095 104.437 22.5832 103.853 21.7534C103.174 20.8102 102.262 20.3417 101.115 20.3417C99.9417 20.3417 99.0294 20.8102 98.3757 21.7534C97.7867 22.5832 97.4958 23.6095 97.4958 24.8254C97.4958 26.0345 97.7795 27.0732 98.3433 27.9278C99.0165 28.871 99.9417 29.3403 101.115 29.3403C102.287 29.3403 103.2 28.871 103.853 27.9278C104.437 27.0732 104.728 26.0345 104.728 24.8254ZM123.548 17.9415C123.548 19.075 122.997 19.8538 121.894 20.2778C120.874 20.6204 119.858 20.9693 118.845 21.3291C117.734 21.9629 117.184 23.1406 117.184 24.8506V31.3533C117.184 32.1265 116.929 32.7783 116.436 33.323C115.934 33.8618 115.301 34.1342 114.534 34.1342C113.761 34.1342 113.126 33.8618 112.633 33.323C112.131 32.7783 111.884 32.1265 111.884 31.3533V18.2908C111.884 17.5232 112.131 16.8721 112.626 16.3462C113.126 15.8141 113.761 15.5488 114.528 15.5488C115.795 15.5488 116.676 16.1111 117.171 17.2329C118.306 15.8777 119.524 15.1999 120.835 15.1999C121.583 15.1999 122.224 15.4716 122.756 16.01C123.281 16.5547 123.548 17.2006 123.548 17.9415ZM137.374 18.1824C137.374 19.3599 136.911 20.1009 135.993 20.4182C135.541 20.5761 134.596 20.6583 133.157 20.6583V31.3533C133.157 32.1265 132.904 32.7783 132.411 33.323C131.909 33.8618 131.275 34.1342 130.509 34.1342C129.761 34.1342 129.126 33.8618 128.619 33.323C128.112 32.7783 127.859 32.1265 127.859 31.3533V20.6583C126.768 20.6583 125.976 20.5189 125.476 20.2473C124.792 19.8672 124.453 19.1767 124.453 18.1824C124.453 17.1886 124.803 16.5109 125.506 16.1494C125.982 15.8833 126.768 15.7446 127.859 15.7446V13.4775C127.859 10.8117 128.739 9.48209 130.509 9.48209C132.27 9.48209 133.157 10.8117 133.157 13.4775V15.7446C134.596 15.7446 135.541 15.8268 135.993 15.9847C136.911 16.3013 137.374 17.0366 137.374 18.1824ZM179.948 14.9668C179.934 13.3414 176.927 12.6035 169.144 12.6035C150.882 12.6035 146.248 11.8243 141.291 6.6123C143.376 9.74181 144.518 15.6116 163.82 15.3195C183.959 15.0096 171.673 20.507 168.098 26.718C174.545 20.97 179.929 17.1813 179.948 14.9903V14.9668ZM154.286 31.6579C154.285 33.1688 153.041 34.4119 151.528 34.4122C150 34.4122 148.765 33.1781 148.765 31.6579C148.765 31.6572 148.765 31.6565 148.765 31.6558C148.765 30.1424 150.011 28.897 151.527 28.897C151.528 28.897 151.528 28.897 151.528 28.897C153.051 28.897 154.286 30.1315 154.286 31.6579ZM166.862 31.6579C166.861 33.1688 165.617 34.4119 164.104 34.4122C162.578 34.4122 161.342 33.1781 161.342 31.6579C161.342 31.6572 161.342 31.6565 161.342 31.6558C161.342 30.1424 162.588 28.897 164.103 28.897C164.104 28.897 164.104 28.897 164.104 28.897C165.627 28.897 166.862 30.1315 166.862 31.6579Z" fill="url(#paint0_linear_6072_449)"/>
</g>
<defs>
<linearGradient id="paint0_linear_6072_449" x1="89.9999" y1="34.249" x2="89.9999" y2="6.61238" gradientUnits="userSpaceOnUse">
<stop stop-color="#04B6F0"/>
<stop offset="1" stop-color="#3ECAF0"/>
</linearGradient>
<clipPath id="clip0_6072_449">
<rect width="180" height="35.1" fill="white" transform="translate(0 6.4502)"/>
</clipPath>
</defs>
</svg>
