<svg width="180" height="48" viewBox="0 0 180 48" fill="none" xmlns="http://www.w3.org/2000/svg">
<path d="M65.6244 35.5033C63.6475 37.3678 61.0652 38.3006 57.8777 38.3018C54.6902 38.3029 52.1074 37.3701 50.1293 35.5033C48.15 33.6365 47.1609 31.1398 47.1621 28.0133V8.99902H50.0467V28.0133C50.0467 30.3184 50.7334 32.1424 52.1068 33.4854C53.4803 34.8283 55.4039 35.501 57.8777 35.5033C60.3492 35.5033 62.2723 34.8307 63.6469 33.4854C65.0215 32.14 65.7088 30.316 65.7088 28.0133V8.99902H68.5934V28.0133C68.5934 31.141 67.6037 33.6377 65.6244 35.5033Z" fill="white"/>
<path d="M84.0059 16.7363C86.5055 16.7363 88.4771 17.498 89.9209 19.0215C91.3646 20.5449 92.0859 22.5957 92.0848 25.1738V37.816H89.3637V25.1721C89.3637 23.3357 88.8762 21.909 87.9012 20.8918C86.9262 19.8746 85.5451 19.3672 83.758 19.3695C81.7811 19.3695 80.1738 19.9936 78.9363 21.2416C77.6988 22.4896 77.0807 24.4174 77.0818 27.0248V37.816H74.3555V17.2303H77.0748V20.44C78.6182 17.9697 80.9285 16.7352 84.0059 16.7363Z" fill="white"/>
<path d="M100.12 12.2912C99.8427 12.5692 99.4894 12.7585 99.1046 12.8351C98.7198 12.9116 98.3209 12.872 97.9587 12.7213C97.5965 12.5705 97.2873 12.3154 97.0705 11.9884C96.8537 11.6614 96.739 11.2773 96.7411 10.885C96.7332 10.6202 96.7786 10.3565 96.8744 10.1096C96.9703 9.86266 97.1148 9.63749 97.2993 9.44741C97.4838 9.25734 97.7045 9.10623 97.9485 9.00304C98.1925 8.89985 98.4546 8.84668 98.7195 8.84668C98.9844 8.84668 99.2466 8.89985 99.4906 9.00304C99.7345 9.10623 99.9553 9.25734 100.14 9.44741C100.324 9.63749 100.469 9.86266 100.565 10.1096C100.661 10.3565 100.706 10.6202 100.698 10.885C100.704 11.1465 100.655 11.4065 100.556 11.6484C100.456 11.8904 100.308 12.1093 100.12 12.2912ZM97.3599 37.8164V17.2307H100.079V37.8164H97.3599Z" fill="white"/>
<path d="M124.603 8.91602V13.4441H116.482V37.7248H111.736V13.4441H103.583V8.91602H124.603Z" fill="#EF3C54"/>
<path d="M140.429 17.1475H144.879V37.7244H140.429V34.7607C138.752 37.0928 136.349 38.2588 133.221 38.2588C130.391 38.2588 127.973 37.2094 125.967 35.1105C123.961 33.0117 122.956 30.4564 122.954 27.4447C122.954 24.3979 123.957 21.8326 125.962 19.749C127.967 17.6654 130.385 16.6225 133.216 16.6201C136.346 16.6201 138.749 17.7727 140.423 20.0777L140.429 17.1475ZM129.259 32.1469C130.495 33.3973 132.047 34.0219 133.916 34.0207C135.785 34.0195 137.338 33.3949 138.574 32.1469C139.809 30.8988 140.427 29.3285 140.429 27.4359C140.43 25.5434 139.812 23.9725 138.574 22.7232C137.337 21.4752 135.784 20.8512 133.916 20.8512C132.048 20.8512 130.496 21.4752 129.259 22.7232C128.022 23.9736 127.404 25.5475 127.405 27.4447C127.406 29.342 128.024 30.9094 129.259 32.1469Z" fill="#EF3C54"/>
<path d="M150.072 37.7248V8.91602H154.523V37.7248H150.072Z" fill="#EF3C54"/>
<path d="M177.891 37.7248H172.574L164.126 28.2186V37.7248H159.675V8.91602H164.126V26.2428L172.12 17.1479H177.569L168.503 27.2307L177.891 37.7248Z" fill="#EF3C54"/>
<path d="M39.0357 30.6691C40.1697 28.6034 40.7913 26.2956 40.8484 23.9398C40.9056 21.5839 40.3965 19.2488 39.3641 17.1305C38.3316 15.0121 36.8059 13.1725 34.915 11.7661C33.0242 10.3597 30.8234 9.42758 28.4977 9.04805C27.7148 8.92087 26.923 8.85679 26.1299 8.85645C25.3374 8.8568 24.5461 8.92087 23.7639 9.04805C23.4123 9.10254 23.0783 9.17109 22.7408 9.2502C23.0162 9.36738 23.2875 9.48809 23.5547 9.6123C23.683 9.67383 23.8113 9.73887 23.9379 9.80391C24.3229 10.0043 24.7008 10.2187 25.0664 10.4508C25.418 10.4227 25.7695 10.4068 26.1299 10.4068C28.2709 10.4087 30.3792 10.9319 32.2726 11.9313C34.166 12.9307 35.7875 14.3762 36.997 16.1428C38.2064 17.9094 38.9675 19.944 39.2143 22.0707C39.4611 24.1974 39.1862 26.3522 38.4135 28.3488C38.2635 28.7309 38.0982 29.1029 37.9178 29.465C37.7772 29.7451 37.6277 30.0188 37.4695 30.2859C37.4176 30.3744 37.3837 30.4724 37.3698 30.574C37.356 30.6757 37.3624 30.7791 37.3887 30.8783L37.5645 31.5586L37.8211 32.5184L38.0707 33.45L38.8477 36.2871L36 35.5312L35.0684 35.2816L34.1016 35.0197L33.4213 34.8439C33.3221 34.8176 33.2187 34.8112 33.117 34.8251C33.0153 34.839 32.9174 34.8729 32.8289 34.9248C32.5617 35.083 32.2881 35.2324 32.008 35.373C31.6441 35.5488 31.2732 35.7246 30.8918 35.8687C30.317 36.0905 29.7272 36.2714 29.127 36.4102C28.1471 36.6375 27.1446 36.7525 26.1387 36.7529C25.7871 36.7529 25.4268 36.7371 25.0752 36.709C24.6498 36.6756 24.2297 36.6211 23.8148 36.549C23.5881 36.5086 23.3648 36.4611 23.1416 36.4102C22.9658 36.3697 22.79 36.324 22.6143 36.2766C22.2293 36.1711 21.8531 36.048 21.4822 35.9074C20.9395 35.7046 20.4109 35.4656 19.9002 35.192C20.2623 35.0971 20.6191 34.9846 20.9672 34.8563C21.2063 34.7684 21.4436 34.6805 21.6703 34.5697C21.8491 34.4889 21.9905 34.3432 22.0659 34.1621C22.1413 33.981 22.1451 33.7779 22.0764 33.5941L19.9898 27.9691C19.935 27.8208 19.836 27.6927 19.7062 27.6022C19.5764 27.5117 19.4221 27.4631 19.2639 27.4629H16.7766C16.7766 27.4629 16.0576 25.1936 16.0576 23.5957C16.0327 22.2661 16.296 20.9468 16.8293 19.7285H19.2779C19.4361 19.7283 19.5905 19.6797 19.7203 19.5892C19.85 19.4987 19.949 19.3706 20.0039 19.2223L22.0904 13.5973C22.1591 13.4135 22.1554 13.2105 22.08 13.0293C22.0046 12.8482 21.8632 12.7025 21.6844 12.6217C21.4506 12.518 21.2133 12.423 20.9813 12.3352C20.6297 12.2068 20.2781 12.0943 19.9143 11.9994C19.5418 11.9001 19.1646 11.8197 18.784 11.7586C18.392 11.6953 17.993 11.6496 17.5869 11.625C15.9737 12.7724 14.6086 14.2337 13.5735 15.9212C12.5384 17.6087 11.8545 19.4878 11.5629 21.4459C11.533 21.641 11.5084 21.8379 11.4873 22.0348C11.4343 22.5475 11.4079 23.0627 11.4082 23.5781C11.406 27.1776 12.7259 30.6525 15.1172 33.3428C15.3387 33.5906 15.5672 33.8332 15.8045 34.0652C16.0418 34.2973 16.2404 34.4836 16.4689 34.6822C16.8205 34.9934 17.1984 35.2887 17.5852 35.5611C18.0916 35.9212 18.62 36.2494 19.1672 36.5437C19.534 36.7406 19.9107 36.9229 20.2975 37.0904C20.6842 37.258 21.082 37.4104 21.491 37.5475C21.9035 37.6846 22.3236 37.8018 22.7514 37.899C23.0889 37.9781 23.4299 38.0467 23.7744 38.1012C24.5567 38.2283 25.3479 38.2924 26.1404 38.2928C26.9335 38.2924 27.7254 38.2284 28.5082 38.1012C30.1606 37.8357 31.7552 37.2887 33.2227 36.484L39.8689 38.2646C40.0004 38.2998 40.1387 38.2998 40.2701 38.2645C40.4015 38.2293 40.5213 38.1601 40.6175 38.0639C40.7136 37.9678 40.7828 37.848 40.8181 37.7166C40.8533 37.5852 40.8533 37.4468 40.8182 37.3154L39.0357 30.6691Z" fill="white"/>
<path d="M31.4735 22.0365C31.4542 21.8379 31.4278 21.641 31.3997 21.4459C31.0937 19.3817 30.3537 17.4058 29.2284 15.6484C28.1031 13.891 26.618 12.3922 24.8712 11.2506C24.5196 11.0256 24.1681 10.8129 23.806 10.616C23.6302 10.5246 23.4544 10.4403 23.2786 10.3488C23.1028 10.2574 22.8761 10.1572 22.6704 10.0694C22.2802 9.89357 21.8829 9.74767 21.4751 9.61232C21.0673 9.47697 20.6437 9.35568 20.2165 9.26076C17.4444 8.60584 14.5418 8.76891 11.8604 9.73021C9.17905 10.6915 6.83402 12.4098 5.10944 14.6769C3.38486 16.9439 2.35475 19.6625 2.14392 22.5031C1.93309 25.3438 2.55059 28.1846 3.9216 30.6815L2.1462 37.3154C2.11161 37.4468 2.11205 37.5849 2.14749 37.716C2.18292 37.8471 2.2521 37.9667 2.34815 38.0627C2.44419 38.1588 2.56373 38.228 2.69485 38.2634C2.82596 38.2988 2.96408 38.2993 3.09542 38.2647L9.74171 36.484C12.9391 38.2375 16.6725 38.7447 20.2218 37.9078C19.814 37.7391 19.415 37.5545 19.0247 37.3541C18.638 37.1537 18.2618 36.9393 17.8962 36.7072C17.5446 36.7354 17.1931 36.7512 16.8415 36.7512C15.2105 36.7526 13.5934 36.451 12.0726 35.8617C11.6911 35.7123 11.3202 35.5471 10.9564 35.366C10.6763 35.2254 10.4027 35.076 10.1355 34.9178C10.047 34.8659 9.94904 34.832 9.84736 34.8181C9.74569 34.8042 9.64227 34.8106 9.54308 34.8369L8.86281 35.0127L7.90304 35.2694L6.96261 35.5313L4.12374 36.2871L4.88488 33.45L5.13449 32.5166L5.39113 31.5569L5.56691 30.8783C5.59327 30.7789 5.59969 30.6752 5.58581 30.5732C5.57194 30.4712 5.53803 30.373 5.48605 30.2842C5.32785 30.017 5.17843 29.7434 5.03781 29.4633C4.85734 29.1012 4.6921 28.7291 4.5421 28.3471C3.76914 26.3499 3.49435 24.1944 3.74151 22.0672C3.98866 19.9399 4.75032 17.9049 5.9606 16.1381C7.17088 14.3713 8.79335 12.926 10.6877 11.9271C12.582 10.9282 14.6912 10.4058 16.8327 10.4051C17.1843 10.4051 17.5359 10.4209 17.8874 10.449C18.3128 10.4824 18.7329 10.5369 19.1478 10.609C19.5626 10.6811 19.9511 10.7725 20.3413 10.8815C20.7316 10.9904 21.1025 11.11 21.4716 11.2506C21.8407 11.3912 22.1923 11.5389 22.5386 11.7059L22.7337 11.8043C23.6698 12.2754 24.5467 12.856 25.3458 13.534C25.613 13.7625 25.8732 13.9998 26.121 14.2477C28.4306 16.5407 29.8046 19.6109 29.9759 22.861C29.9882 23.0737 29.9935 23.2899 29.9952 23.5061V23.5781C29.9982 25.3081 29.6595 27.0216 28.9986 28.6204C28.3376 30.2191 27.3675 31.6716 26.1439 32.8946H26.121V32.9209C25.8866 33.1553 25.6405 33.3826 25.3827 33.6029L25.3458 33.6346C25.1114 33.8303 24.8771 34.0178 24.6427 34.1971C24.0432 34.6363 23.4075 35.0238 22.7425 35.3555L22.5474 35.4539C22.6335 35.4785 22.7232 35.5049 22.8058 35.5278C23.0917 35.6063 23.3818 35.676 23.6759 35.7369C24.0679 35.8143 24.4669 35.8758 24.8712 35.9127C25.3067 35.6282 25.7269 35.3207 26.1298 34.9916C26.2546 34.8914 26.3776 34.7877 26.4989 34.6822C26.7275 34.4836 26.9472 34.2779 27.1634 34.0653C27.3392 33.8895 27.515 33.7137 27.6784 33.5379L27.8542 33.3481C29.357 31.6527 30.4466 29.6324 31.0376 27.4453C31.078 27.2977 31.1167 27.15 31.1519 27.0006C31.5394 25.3737 31.6482 23.6928 31.4735 22.0295V22.0365Z" fill="#EF3C54"/>
</svg>
