<svg width="181" height="48" viewBox="0 0 181 48" fill="none" xmlns="http://www.w3.org/2000/svg">
<g clip-path="url(#clip0_6072_430)">
<path d="M10.7249 38.4973C13.2144 38.4973 15.3079 37.8505 17.0052 36.5568C18.7027 35.2631 19.7589 33.7602 20.2114 32.0671L15.4587 30.7354C15.2324 31.6105 14.6666 32.3525 13.7991 32.9612C12.9126 33.589 11.8753 33.8934 10.6683 33.8934C9.10291 33.8934 7.82044 33.3226 6.83972 32.1622C5.84014 31.0207 5.34978 29.651 5.34978 28.0529C5.34978 26.4549 5.84014 25.085 6.82085 23.9437C7.80157 22.8212 9.08405 22.2505 10.6683 22.2505C11.8753 22.2505 12.9316 22.5739 13.7991 23.2207C14.6666 23.8676 15.2324 24.6475 15.4587 25.5226L20.2114 24.1529C19.7777 22.4978 18.7027 21.0139 16.9864 19.6821C15.2701 18.3504 13.1578 17.6846 10.6683 17.6846C7.70727 17.6846 5.23661 18.6738 3.27517 20.6524C1.31373 22.6309 0.333008 25.085 0.333008 28.0529C0.333008 31.0207 1.31373 33.4939 3.27517 35.4915C5.23661 37.5081 7.72614 38.4973 10.7249 38.4973Z" fill="white"/>
<path d="M35.1297 17.6844C32.4893 17.6844 30.3959 18.7118 28.8305 20.7283V9.50391H23.7383V37.9455H28.8305V28.2049C28.8305 26.4737 29.2453 25.0849 30.1129 24.0386C30.9804 23.0113 32.1121 22.4786 33.5455 22.4786C34.9034 22.4786 35.9407 22.9162 36.6573 23.7913C37.3552 24.6664 37.7135 25.8649 37.7135 27.3868V37.9455H42.8246V26.4167C42.8246 23.7152 42.1645 21.5844 40.8443 20.0244C39.524 18.4644 37.6192 17.6844 35.1297 17.6844Z" fill="white"/>
<path d="M57.083 38.4973C59.4405 38.4973 61.4398 37.9456 63.0805 36.8041C64.7213 35.6817 65.8719 34.3691 66.5131 32.8851L61.9113 31.5154C61.0059 33.2656 59.4217 34.1218 57.1585 34.1218C55.4611 34.1218 54.122 33.7221 53.1791 32.9042C52.2171 32.0861 51.6514 31.0017 51.4817 29.651H66.664C66.7394 29.2324 66.7771 28.6237 66.7771 27.8247C66.7771 24.9139 65.8719 22.4978 64.0612 20.5763C62.2507 18.6548 59.7989 17.6846 56.687 17.6846C53.6505 17.6846 51.1799 18.6738 49.2939 20.6524C47.4079 22.6309 46.4648 25.1041 46.4648 28.0909C46.4648 31.211 47.4455 33.7412 49.4071 35.6437C51.3685 37.5461 53.9334 38.4973 57.083 38.4973ZM51.4817 26.4168C51.6325 25.2373 52.1606 24.2099 53.1036 23.3348C54.0466 22.4788 55.2159 22.0412 56.6492 22.0412C58.1204 22.0412 59.3085 22.4597 60.2327 23.2968C61.138 24.1338 61.666 25.1802 61.7981 26.4168H51.4817Z" fill="white"/>
<path d="M79.8284 38.4973C82.3179 38.4973 84.4114 37.8505 86.1088 36.5568C87.8062 35.2631 88.8624 33.7602 89.315 32.0671L84.5623 30.7354C84.3359 31.6105 83.7702 32.3525 82.9026 32.9612C82.0162 33.589 80.9789 33.8934 79.7718 33.8934C78.2064 33.8934 76.9239 33.3226 75.9432 32.1622C74.9437 31.0207 74.4533 29.651 74.4533 28.0529C74.4533 26.4549 74.9437 25.085 75.9244 23.9437C76.9051 22.8212 78.1875 22.2505 79.7718 22.2505C80.9789 22.2505 82.0351 22.5739 82.9026 23.2207C83.7702 23.8676 84.3359 24.6475 84.5623 25.5226L89.315 24.1529C88.8812 22.4978 87.8062 21.0139 86.0899 19.6821C84.3736 18.3504 82.2613 17.6846 79.7718 17.6846C76.8108 17.6846 74.3401 18.6738 72.3787 20.6524C70.4172 22.6309 69.4365 25.085 69.4365 28.0529C69.4365 31.0207 70.4172 33.4939 72.3787 35.4915C74.3401 37.5081 76.8297 38.4973 79.8284 38.4973Z" fill="white"/>
<path d="M105.893 37.9455H111.702L103.422 26.7211L110.929 18.2361H104.969L97.934 26.3786V9.50391H92.8418V37.9455H97.934V32.923L100.216 30.3547L105.893 37.9455Z" fill="white"/>
<path d="M125.809 17.6844C123.131 17.6844 121.019 18.6737 119.472 20.6142V9.50391H114.38V37.9455H119.472V35.5294C121.037 37.5079 123.15 38.4972 125.809 38.4972C128.505 38.4972 130.789 37.5079 132.637 35.5104C134.484 33.5319 135.428 31.0586 135.428 28.0908C135.428 25.104 134.503 22.6307 132.655 20.6522C130.807 18.6737 128.525 17.6844 125.809 17.6844ZM124.922 33.8933C123.339 33.8933 122.018 33.3416 120.962 32.2381C119.887 31.1347 119.359 29.7459 119.359 28.0527C119.359 26.3977 119.887 25.0279 120.962 23.9244C122.018 22.8401 123.339 22.2884 124.922 22.2884C126.507 22.2884 127.826 22.8401 128.864 23.9055C129.883 24.9898 130.411 26.3786 130.411 28.0527C130.411 29.765 129.883 31.1728 128.864 32.2571C127.826 33.3606 126.507 33.8933 124.922 33.8933Z" fill="white"/>
<path d="M148.555 38.4973C151.535 38.4973 154.024 37.5081 156.005 35.5105C157.985 33.532 158.984 31.0588 158.984 28.0909C158.984 25.1231 157.985 22.65 156.023 20.6714C154.043 18.6929 151.553 17.6846 148.535 17.6846C145.518 17.6846 143.029 18.6929 141.048 20.6714C139.068 22.65 138.087 25.1231 138.087 28.0909C138.087 31.0588 139.068 33.532 141.048 35.5105C143.029 37.5081 145.537 38.4973 148.555 38.4973ZM148.555 33.8173C146.932 33.8173 145.612 33.2846 144.593 32.2002C143.575 31.1349 143.067 29.7652 143.067 28.0909C143.067 26.4358 143.575 25.0661 144.593 23.9817C145.612 22.9163 146.932 22.3646 148.555 22.3646C150.177 22.3646 151.478 22.9163 152.497 23.9817C153.515 25.0661 154.024 26.4358 154.024 28.0909C154.024 29.7652 153.515 31.1349 152.497 32.2002C151.478 33.2846 150.177 33.8173 148.555 33.8173Z" fill="white"/>
<path d="M180.333 37.9457L173.034 27.9768L179.993 18.2363H174.222L169.904 24.191L165.622 18.2363H159.832L166.81 27.9768L159.511 37.9457H165.301L169.904 31.6677L174.505 37.9457H180.333Z" fill="white"/>
</g>
<defs>
<clipPath id="clip0_6072_430">
<rect width="180" height="28.9933" fill="white" transform="translate(0.333008 9.50293)"/>
</clipPath>
</defs>
</svg>
