<?xml version="1.0" encoding="utf-8"?>
<svg version="1.1" xmlns="http://www.w3.org/2000/svg" xmlns:xlink="http://www.w3.org/1999/xlink">
	<defs>
		<symbol id="logo" viewBox="0 0 180 48">
			<g clip-path="url(#clip0_6001_11372)">
				<path
					d="M58.4395 15.6973H65.5186C69.3989 15.6973 71.9163 17.7446 71.8932 21.1535C71.8932 24.5134 69.2986 26.6098 65.5186 26.6098H60.6817V33.5074H58.4395V15.6973ZM65.5186 24.565C68.0875 24.565 69.6252 23.2267 69.6252 21.1535C69.6252 19.0803 68.0875 17.7189 65.5186 17.7189H60.6817V24.565H65.5186Z"
					fill="white"
				/>
				<path
					d="M74.8916 20.7468H76.9333V22.4642H77.1596C77.7382 21.3012 79.1499 20.4941 80.5616 20.4941C81.1402 20.4941 81.7445 20.6205 82.1225 20.8216V22.7659C81.4667 22.4874 80.7107 22.3868 80.2325 22.3868C78.3167 22.3868 76.9822 24.1041 76.9822 26.6311V33.503H74.8916V20.7443V20.7468Z"
					fill="white"
				/>
				<path
					d="M83.6338 27.116C83.6338 23.0986 86.4547 20.2441 90.4609 20.2441C94.4672 20.2441 97.2881 23.0986 97.2881 27.116C97.2881 31.1334 94.4415 34.0137 90.4609 34.0137C86.4804 34.0137 83.6338 31.1592 83.6338 27.116ZM95.1949 27.116C95.1949 24.2358 93.2046 22.1394 90.4584 22.1394C87.7121 22.1394 85.7218 24.2358 85.7218 27.116C85.7218 29.9963 87.6864 32.1184 90.4584 32.1184C93.2304 32.1184 95.1949 30.0221 95.1949 27.116Z"
					fill="white"
				/>
				<path
					d="M101.117 22.4168H99.0752V20.7485H101.117V18.1725C101.117 15.8982 102.503 14.4336 104.519 14.4336C105.249 14.4336 105.879 14.5599 106.458 14.7379V16.5558C106.031 16.4294 105.576 16.3288 105.072 16.3288C103.963 16.3288 103.207 17.1385 103.207 18.3762V20.7511H106.432V22.4194H103.207V33.5098H101.117V22.4194V22.4168Z"
					fill="white"
				/>
				<path
					d="M109.13 16.8103C109.13 15.9517 109.76 15.3457 110.642 15.3457C111.524 15.3457 112.128 15.9517 112.128 16.8103C112.128 17.669 111.524 18.3265 110.642 18.3265C109.76 18.3265 109.13 17.6948 109.13 16.8103ZM109.582 20.7504H111.673V33.5091H109.582V20.7504Z"
					fill="white"
				/>
				<path
					d="M130.62 17.2923C133.449 17.2923 135.961 19.2236 136.594 21.8847L136.638 22.0652L139.286 21.7068L139.235 21.4876C138.33 17.6481 134.706 14.8633 130.62 14.8633C125.174 14.8633 121.222 18.9555 121.222 24.5922C121.209 27.3719 122.181 29.8886 123.955 31.6781C125.663 33.4006 128.031 34.3469 130.62 34.3469C134.691 34.3469 138.301 31.6884 139.209 28.0269L139.26 27.818L136.674 27.31L136.622 27.4931C135.91 30.0562 133.385 31.9153 130.62 31.9153C126.74 31.9153 123.922 28.8365 123.922 24.5922C123.922 20.3479 126.74 17.2949 130.62 17.2949V17.2923Z"
					fill="#444CE6"
				/>
				<path
					d="M157.074 21.1071C157.074 17.6982 154.482 15.4961 150.47 15.4961H142.532V33.7162H145.232V26.7438H148.21L154.356 33.7162H157.807L151.35 26.6097C154.726 26.3957 157.071 24.1498 157.071 21.1071H157.074ZM145.235 17.9251H150.473C152.88 17.9251 154.374 19.1448 154.374 21.1045C154.374 23.0642 152.88 24.3096 150.473 24.3096H145.235V17.9225V17.9251Z"
					fill="#444CE6"
				/>
				<path
					d="M176.058 15.4961L170.187 30.0366L164.342 15.4961H160.372V33.7137H163.098V19.1216L168.953 33.7137H171.422L177.302 19.0958V33.7137H180.002V15.4961H176.058Z"
					fill="#444CE6"
				/>
				<path
					d="M39.8771 30.6024C37.1977 37.0952 30.9414 41.2932 23.9368 41.2932C14.4277 41.2932 6.69281 33.5342 6.69281 24.0013C6.69281 14.4683 14.4277 6.70685 23.9368 6.70685C28.802 6.70685 33.4382 8.79033 36.686 12.3616L34.958 13.3621L44.1945 18.7101V8.01676L42.5771 8.95278C38.0514 3.32377 31.1754 0 23.9368 0C10.7402 0 0.00195312 10.7655 0.00195312 24.0013C0.00195312 37.2371 10.7402 48.0026 23.9368 48.0026C33.6594 48.0026 42.3431 42.1802 46.0588 33.1681L39.8771 30.605V30.6024Z"
					fill="#444CE6"
				/>
				<path
					d="M15.0156 46.255V17.1791C15.0156 15.5881 16.3013 14.2988 17.8879 14.2988H24.3988C29.8528 14.2988 34.2756 18.7314 34.2756 24.2031C34.2756 29.6722 29.8553 34.1074 24.3988 34.1074H22.4239L15.2779 46.3298C15.2059 46.4535 15.0182 46.402 15.0182 46.2576L15.0156 46.255Z"
					fill="white"
				/>
			</g>
			<defs>
				<clipPath id="clip0_6001_11372">
					<rect width="180" height="48" fill="white" />
				</clipPath>
			</defs>
		</symbol>

		<symbol id="world" viewBox="0 0 20 20" fill="none">
			<path
				d="M18.3337 9.99935C18.3337 14.6017 14.6027 18.3327 10.0003 18.3327M18.3337 9.99935C18.3337 5.39698 14.6027 1.66602 10.0003 1.66602M18.3337 9.99935H1.66699M10.0003 18.3327C5.39795 18.3327 1.66699 14.6017 1.66699 9.99935M10.0003 18.3327C12.0847 16.0507 13.2693 13.0893 13.3337 9.99935C13.2693 6.90938 12.0847 3.94798 10.0003 1.66602M10.0003 18.3327C7.91593 16.0507 6.73137 13.0893 6.66699 9.99935C6.73137 6.90938 7.91593 3.94798 10.0003 1.66602M1.66699 9.99935C1.66699 5.39698 5.39795 1.66602 10.0003 1.66602"
				stroke="#444CE6"
				stroke-width="1.67"
				stroke-linecap="round"
				stroke-linejoin="round"
			/>
		</symbol>

		<symbol id="person" viewBox="0 0 16 18" fill="none">
			<path
				d="M14.6663 16.5005V14.8338C14.6663 13.9498 14.3152 13.1019 13.69 12.4768C13.0649 11.8517 12.2171 11.5005 11.333 11.5005H4.66634C3.78229 11.5005 2.93444 11.8517 2.30932 12.4768C1.6842 13.1019 1.33301 13.9498 1.33301 14.8338V16.5005M11.333 4.83382C11.333 6.67477 9.84062 8.16715 7.99967 8.16715C6.15873 8.16715 4.66634 6.67477 4.66634 4.83382C4.66634 2.99287 6.15873 1.50049 7.99967 1.50049C9.84062 1.50049 11.333 2.99287 11.333 4.83382Z"
				stroke="#444CE7"
				stroke-width="2"
				stroke-linecap="round"
				stroke-linejoin="round"
			/>
		</symbol>
	
		<symbol id="mail" viewBox="0 0 22 19" fill="none">
			<path
				d="M21 3.42578C21 2.32578 20.1 1.42578 19 1.42578H3C1.9 1.42578 1 2.32578 1 3.42578M21 3.42578V15.4258C21 16.5258 20.1 17.4258 19 17.4258H3C1.9 17.4258 1 16.5258 1 15.4258V3.42578M21 3.42578L11 10.4258L1 3.42578"
				stroke="currentColor"
				stroke-width="2"
				stroke-linecap="round"
				stroke-linejoin="round"
			/>
		</symbol>

		<symbol id="phone" viewBox="0 0 23 24" fill="none">
			<path
				d="M14.0504 5.42578C15.0272 5.61635 15.9248 6.09404 16.6285 6.79772C17.3322 7.50139 17.8099 8.39905 18.0004 9.37578M14.0504 1.42578C16.0797 1.65122 17.972 2.55996 19.4167 4.00279C20.8613 5.44562 21.7724 7.33679 22.0004 9.36578M21.0004 17.3458V20.3458C21.0016 20.6243 20.9445 20.9 20.8329 21.1551C20.7214 21.4103 20.5577 21.6394 20.3525 21.8276C20.1473 22.0159 19.905 22.1593 19.6412 22.2485C19.3773 22.3377 19.0978 22.3708 18.8204 22.3458C15.7433 22.0114 12.7874 20.9599 10.1904 19.2758C7.77425 17.7404 5.72576 15.692 4.19042 13.2758C2.5004 10.667 1.44866 7.69678 1.12042 4.60578C1.09543 4.32925 1.1283 4.05054 1.21692 3.78741C1.30555 3.52427 1.44799 3.28247 1.63519 3.0774C1.82238 2.87233 2.05023 2.70849 2.30421 2.5963C2.5582 2.48412 2.83276 2.42604 3.11042 2.42578H6.11042C6.59573 2.421 7.06621 2.59286 7.43418 2.90931C7.80215 3.22577 8.0425 3.66523 8.11042 4.14578C8.23704 5.10585 8.47187 6.04851 8.81042 6.95578C8.94497 7.31371 8.97408 7.7027 8.89433 8.07666C8.81457 8.45063 8.62928 8.79389 8.36042 9.06578L7.09042 10.3358C8.51398 12.8393 10.5869 14.9122 13.0904 16.3358L14.3604 15.0658C14.6323 14.7969 14.9756 14.6116 15.3495 14.5319C15.7235 14.4521 16.1125 14.4812 16.4704 14.6158C17.3777 14.9543 18.3204 15.1892 19.2804 15.3158C19.7662 15.3843 20.2098 15.629 20.527 16.0033C20.8441 16.3776 21.0126 16.8554 21.0004 17.3458Z"
				stroke="currentColor"
				stroke-width="2"
				stroke-linecap="round"
				stroke-linejoin="round"
			/>
		</symbol>

		<symbol id="telegram" viewBox="0 0 24 24" fill="none">
			<path
				fill-rule="evenodd"
				clip-rule="evenodd"
				d="M24 12C24 18.6274 18.6274 24 12 24C5.37258 24 0 18.6274 0 12C0 5.37258 5.37258 0 12 0C18.6274 0 24 5.37258 24 12ZM12.43 8.85893C11.2628 9.3444 8.93014 10.3492 5.43189 11.8733C4.86383 12.0992 4.56626 12.3202 4.53917 12.5363C4.49339 12.9015 4.95071 13.0453 5.57348 13.2411C5.65819 13.2678 5.74596 13.2954 5.83594 13.3246C6.44864 13.5238 7.27283 13.7568 7.70129 13.766C8.08994 13.7744 8.52373 13.6142 9.00264 13.2853C12.2712 11.079 13.9584 9.96381 14.0643 9.93977C14.139 9.92281 14.2426 9.90148 14.3128 9.96385C14.3829 10.0262 14.376 10.1443 14.3686 10.176C14.3233 10.3691 12.5281 12.0381 11.5991 12.9018C11.3095 13.171 11.1041 13.362 11.0621 13.4056C10.968 13.5033 10.8721 13.5958 10.78 13.6846C10.2108 14.2333 9.78391 14.6448 10.8036 15.3168C11.2936 15.6397 11.6857 15.9067 12.0769 16.1731C12.5042 16.4641 12.9303 16.7543 13.4816 17.1157C13.6221 17.2077 13.7562 17.3034 13.8869 17.3965C14.3841 17.751 14.8307 18.0694 15.3826 18.0186C15.7032 17.9891 16.0345 17.6876 16.2027 16.7884C16.6002 14.6631 17.3816 10.0585 17.5622 8.16097C17.578 7.99473 17.5581 7.78197 17.5422 7.68857C17.5262 7.59518 17.4928 7.46211 17.3714 7.3636C17.2276 7.24694 17.0056 7.22234 16.9064 7.22408C16.455 7.23203 15.7626 7.47282 12.43 8.85893Z"
				fill="currentColor"
			/>
		</symbol>

		<symbol id="vertical-arrow" viewBox="0 0 16 16" fill="none">
			<path
				d="M8 15V1M8 1L1 8M8 1L15 8"
				stroke="#444CE7"
				stroke-width="2"
				stroke-linecap="round"
				stroke-linejoin="round"
				/>
		</symbol>

		<symbol id="close" viewBox="0 0 32 32" fill="none">
			<path
				d="M20.0003 11.9993L12.0003 19.9993M12.0003 11.9993L20.0003 19.9993M29.3337 15.9993C29.3337 23.3631 23.3641 29.3327 16.0003 29.3327C8.63653 29.3327 2.66699 23.3631 2.66699 15.9993C2.66699 8.63555 8.63653 2.66602 16.0003 2.66602C23.3641 2.66602 29.3337 8.63555 29.3337 15.9993Z"
				stroke="currentColor"
				stroke-width="2"
				stroke-linecap="round"
				stroke-linejoin="round"
				/>
		</symbol>

		<symbol id="arrow" viewBox="0 0 14 14" fill="none">
			<path
				d="M1.16699 7.12984H12.8337M12.8337 7.12984L7.00033 1.29651M12.8337 7.12984L7.00033 12.9632"
				stroke="currentColor"
				stroke-width="1.67"
				stroke-linecap="round"
				stroke-linejoin="round"
			/>
		</symbol>

		<symbol id="header-left-arrow" viewBox="0 0 150 122" fill="none">
			<path
				opacity="0.32"
				d="M32.532 45.0549C-0.0078165 6.94551 -48.0109 -32.1346 -9.76953 -64.7871L-13.043 -85.3777C-66.1382 -40.0423 -39.5305 15.14 5.6275 68.0274C30.3975 97.0371 67.2601 113.209 105.328 112.066L107.108 121.754L150.004 85.1273L96.9434 66.4281L98.8431 76.7802C73.4033 75.997 49.1803 64.5528 32.532 45.0549Z"
				fill="#444CE6"
			/>
		</symbol>

		<symbol id="header-right-arrow" viewBox="0 0 150 119">
			<path
				opacity="0.32"
				d="M117.472 77.1589C150.012 115.268 198.015 154.348 159.773 187.001L163.047 207.592C216.142 162.256 189.534 107.074 144.376 54.1865C119.606 25.1768 82.7438 9.00473 44.6763 10.1478L42.8964 0.459644L0.000209526 37.0866L53.0605 55.7857L51.1608 45.4336C76.6007 46.2168 100.824 57.6611 117.472 77.1589Z"
				fill="#444CE6"
			/>
		</symbol>

		<symbol id="preview-desktop-arrow" viewBox="0 0 339 185">
			<path
				opacity="0.16"
				d="M250.162 320.085C242.884 376.088 283.024 313.29 228.67 327.854C154.881 347.626 78.7121 303.443 58.8719 229.399C39.0316 155.354 82.8993 78.9859 156.688 59.2142C194.441 49.0984 234.754 55.6414 267.388 76.6279L256.062 87.9918L338.866 110.326L316.611 27.268L306.008 37.9013C259.174 3.58951 198.9 -7.93018 142.73 7.12052C40.3271 34.5593 -20.5946 140.505 6.95208 243.31C34.4987 346.116 140.231 407.407 242.634 379.968C318.079 359.752 293.394 404.885 303.471 327.16L250.168 320.105L250.162 320.085Z"
				fill="#444CE6"
			/>
		</symbol>

		<symbol id="preview-mobile-arrow" viewBox="0 0 146 208">
			<path
				opacity="0.16"
				d="M117.698 77.158C150.238 115.267 198.241 154.348 160 187L163.273 207.591C216.369 162.255 189.761 107.073 144.603 54.1855C119.833 25.1758 82.9703 9.00375 44.9028 10.1468L43.1229 0.458667L0.226772 37.0856L53.2871 55.7848L51.3874 45.4327C76.8272 46.2159 101.05 57.6601 117.698 77.158Z"
				fill="#444CE6"
			/>
		</symbol>

		<symbol id="preview-telegram" viewBox="0 0 44 44"
		>
			<path
				d="M22 0C16.1666 0 10.5669 2.31928 6.44531 6.44359C2.32031 10.5679 0 16.1676 0 22C0 27.8324 2.32031 33.4321 6.44531 37.5564C10.5669 41.6807 16.1666 44 22 44C27.8334 44 33.4331 41.6807 37.5547 37.5564C41.6797 33.4321 44 27.8324 44 22C44 16.1676 41.6797 10.5679 37.5547 6.44359C33.4331 2.31928 27.8334 0 22 0Z"
				fill="url(#paint0_linear_6123_4187)"
			/>
			<path
				d="M9.95863 21.7669C16.373 18.9729 20.6492 17.1308 22.7873 16.2408C28.8992 13.6995 30.1676 13.2581 30.996 13.2433C31.1782 13.2402 31.5838 13.2852 31.8485 13.4994C32.0685 13.6799 32.1304 13.9239 32.1614 14.0951C32.1889 14.2663 32.2267 14.6565 32.1958 14.961C31.8658 18.4398 30.4324 26.8816 29.7036 30.778C29.3977 32.4267 28.7892 32.9794 28.2014 33.0334C26.9226 33.151 25.9532 32.1892 24.7157 31.3782C22.7804 30.1087 21.6873 29.3188 19.807 28.0802C17.6345 26.6489 19.0439 25.862 20.2814 24.5764C20.6045 24.2399 26.2351 19.1197 26.3416 18.6553C26.3554 18.5972 26.3692 18.3807 26.2386 18.2665C26.1114 18.1521 25.9222 18.1912 25.7847 18.2222C25.5888 18.2662 22.4985 20.3108 16.5035 24.3557C15.6269 24.9587 14.8329 25.2526 14.1179 25.2371C13.3341 25.2202 11.8217 24.793 10.6977 24.4279C9.32266 23.98 8.22604 23.7432 8.32229 22.9824C8.37042 22.5864 8.91707 22.1812 9.95863 21.7669Z"
				fill="white"
			/>
			<defs>
				<linearGradient
					id="paint0_linear_6123_4187"
					x1="22"
					y1="0"
					x2="22"
					y2="44"
					gradientUnits="userSpaceOnUse"
				>
					<stop stop-color="#2AABEE" />
					<stop offset="1" stop-color="#229ED9" />
				</linearGradient>
			</defs>
		</symbol>

		<symbol id="percent" viewBox="0 0 25 24" fill="none">
			<path
				d="M19.5 5L5.5 19M9.5 6.5C9.5 7.88071 8.38071 9 7 9C5.61929 9 4.5 7.88071 4.5 6.5C4.5 5.11929 5.61929 4 7 4C8.38071 4 9.5 5.11929 9.5 6.5ZM20.5 17.5C20.5 18.8807 19.3807 20 18 20C16.6193 20 15.5 18.8807 15.5 17.5C15.5 16.1193 16.6193 15 18 15C19.3807 15 20.5 16.1193 20.5 17.5Z"
				stroke="white"
				stroke-width="2"
				stroke-linecap="round"
				stroke-linejoin="round"
			/>
		</symbol>

		<symbol id="key" viewBox="0 0 25 24" fill="none"
		>
			<path
				d="M16.0003 7.5L19.5003 4M21.5003 2L19.5003 4L21.5003 2ZM11.8903 11.61C12.4066 12.1195 12.8171 12.726 13.098 13.3948C13.379 14.0635 13.5249 14.7813 13.5273 15.5066C13.5297 16.232 13.3887 16.9507 13.1122 17.6213C12.8357 18.2919 12.4293 18.9012 11.9164 19.4141C11.4035 19.9271 10.7942 20.3334 10.1236 20.6099C9.45296 20.8864 8.73427 21.0275 8.00891 21.025C7.28354 21.0226 6.56582 20.8767 5.89707 20.5958C5.22831 20.3148 4.62174 19.9043 4.11227 19.388C3.1104 18.3507 2.55604 16.9614 2.56857 15.5193C2.5811 14.0772 3.15953 12.6977 4.17927 11.678C5.19902 10.6583 6.57849 10.0798 8.02057 10.0673C9.46265 10.0548 10.852 10.6091 11.8893 11.611L11.8903 11.61ZM11.8903 11.61L16.0003 7.5L11.8903 11.61ZM16.0003 7.5L19.0003 10.5L22.5003 7L19.5003 4L16.0003 7.5Z"
				stroke="currentColor"
				stroke-width="2"
				stroke-linecap="round"
				stroke-linejoin="round"
			/>
		</symbol>

		<symbol id="heart" viewBox="0 0 23 21" fill="none"
		>
			<path
				d="M20.3401 2.60987C19.8294 2.09888 19.2229 1.69352 18.5555 1.41696C17.888 1.14039 17.1726 0.998047 16.4501 0.998047C15.7276 0.998047 15.0122 1.14039 14.3448 1.41696C13.6773 1.69352 13.0709 2.09888 12.5601 2.60987L11.5001 3.66987L10.4401 2.60987C9.40843 1.57818 8.00915 0.998582 6.55012 0.998582C5.09109 0.998582 3.69181 1.57818 2.66012 2.60987C1.62843 3.64156 1.04883 5.04084 1.04883 6.49987C1.04883 7.95891 1.62843 9.35818 2.66012 10.3899L3.72012 11.4499L11.5001 19.2299L19.2801 11.4499L20.3401 10.3899C20.8511 9.87912 21.2565 9.27269 21.533 8.60523C21.8096 7.93777 21.9519 7.22236 21.9519 6.49987C21.9519 5.77738 21.8096 5.06198 21.533 4.39452C21.2565 3.72706 20.8511 3.12063 20.3401 2.60987V2.60987Z"
				stroke="currentColor"
				stroke-width="2"
				stroke-linecap="round"
				stroke-linejoin="round"
			/>
		</symbol>

		<symbol id="truck" viewBox="0 0 25 20" fill="none"
		>
			<path
				d="M16.5 14V1H1.5V14H16.5ZM16.5 14H23.5V9L20.5 6H16.5V14ZM8.5 16.5C8.5 17.8807 7.38071 19 6 19C4.61929 19 3.5 17.8807 3.5 16.5C3.5 15.1193 4.61929 14 6 14C7.38071 14 8.5 15.1193 8.5 16.5ZM21.5 16.5C21.5 17.8807 20.3807 19 19 19C17.6193 19 16.5 17.8807 16.5 16.5C16.5 15.1193 17.6193 14 19 14C20.3807 14 21.5 15.1193 21.5 16.5Z"
				stroke="currentColor"
				stroke-width="2"
				stroke-linecap="round"
				stroke-linejoin="round"
			/>
		</symbol>

		<symbol id="check" viewBox="0 0 24 24" fill="none"
		>
			<path
				d="M22 11.0799V11.9999C21.9988 14.1563 21.3005 16.2545 20.0093 17.9817C18.7182 19.7088 16.9033 20.9723 14.8354 21.5838C12.7674 22.1952 10.5573 22.1218 8.53447 21.3744C6.51168 20.6271 4.78465 19.246 3.61096 17.4369C2.43727 15.6279 1.87979 13.4879 2.02168 11.3362C2.16356 9.18443 2.99721 7.13619 4.39828 5.49694C5.79935 3.85768 7.69279 2.71525 9.79619 2.24001C11.8996 1.76477 14.1003 1.9822 16.07 2.85986M22 3.99986L12 14.0099L9.00001 11.0099"
				stroke="#444CE7"
				stroke-width="2"
				stroke-linecap="round"
				stroke-linejoin="round"
			/>
		</symbol>

		<symbol id="lock" viewBox="0 0 32 32" fill="none"
		>
			<path
				d="M16.0003 2.66699C15.7097 2.66699 15.4243 2.66966 15.1443 2.67366L14.323 2.69633L13.9243 2.71366L13.1523 2.75899L12.415 2.82033C6.03499 3.43899 3.43899 6.03499 2.82033 12.415L2.75899 13.1523L2.71366 13.9243C2.70699 14.055 2.70033 14.1883 2.69633 14.323L2.67366 15.1443L2.66833 15.5683L2.66699 16.0003C2.66699 16.291 2.66966 16.5763 2.67366 16.8563L2.69633 17.6777L2.71366 18.0763L2.75899 18.8483L2.82033 19.5857C3.43899 25.9657 6.03499 28.5617 12.415 29.1803L13.1523 29.2417L13.9243 29.287C14.055 29.2937 14.1883 29.3003 14.323 29.3043L15.1443 29.327L16.0003 29.3337L16.8563 29.327L17.6777 29.3043L18.0763 29.287L18.8483 29.2417L19.5857 29.1803C25.9657 28.5617 28.5617 25.9657 29.1803 19.5857L29.2417 18.8483L29.287 18.0763C29.2937 17.9457 29.3003 17.8123 29.3043 17.6777L29.327 16.8563L29.3337 16.0003L29.327 15.1443L29.3043 14.323L29.287 13.9243L29.2417 13.1523L29.1803 12.415C28.5617 6.03499 25.9657 3.43899 19.5857 2.82033L18.8483 2.75899L18.0763 2.71366C17.9435 2.70717 17.8106 2.70139 17.6777 2.69633L16.8563 2.67366L16.4323 2.66833L16.0003 2.66699ZM16.0003 8.00033C17.0206 8.00027 18.0023 8.39009 18.7447 9.09004C19.487 9.78998 19.9338 10.7471 19.9937 11.7657L20.0003 12.0003V13.3337C20.6731 13.3334 21.3211 13.5875 21.8144 14.045C22.3077 14.5024 22.6099 15.1295 22.6603 15.8003L22.667 16.0003V20.0003C22.6672 20.6731 22.4131 21.3211 21.9557 21.8144C21.4982 22.3077 20.8712 22.6099 20.2003 22.6603L20.0003 22.667H12.0003C11.3276 22.6672 10.6796 22.4131 10.1863 21.9557C9.69295 21.4982 9.39078 20.8712 9.34033 20.2003L9.33366 20.0003V16.0003C9.33345 15.3276 9.58753 14.6796 10.045 14.1863C10.5024 13.693 11.1295 13.3908 11.8003 13.3403L12.0003 13.3337V12.0003C12.0003 10.9395 12.4218 9.92204 13.1719 9.1719C13.922 8.42175 14.9395 8.00033 16.0003 8.00033ZM20.0003 16.0003H12.0003V20.0003H20.0003V16.0003ZM16.0003 10.667C15.6737 10.667 15.3585 10.7869 15.1145 11.0039C14.8705 11.221 14.7145 11.52 14.6763 11.8443L14.667 12.0003V13.3337H17.3337V12.0003C17.3337 11.6467 17.1932 11.3076 16.9431 11.0575C16.6931 10.8075 16.3539 10.667 16.0003 10.667Z"
				fill="#444CE7"
			/>
		</symbol>

		<symbol id="sms" viewBox="0 0 32 32" fill="none"
		>
			<path
				fill-rule="evenodd"
				clip-rule="evenodd"
				d="M5.33366 5.66699C3.30862 5.66699 1.66699 7.30862 1.66699 9.33366V22.667C1.66699 24.6921 3.30862 26.3337 5.33366 26.3337H26.667C28.6921 26.3337 30.3337 24.6921 30.3337 22.667V9.33366C30.3337 7.30862 28.6921 5.66699 26.667 5.66699H5.33366ZM9.90713 11.1811C9.45467 10.8644 8.83114 10.9744 8.51443 11.4269C8.19771 11.8793 8.30775 12.5028 8.76019 12.8196L15.4269 17.4862C15.7711 17.7273 16.2295 17.7273 16.5738 17.4862L23.2405 12.8196C23.6929 12.5028 23.803 11.8793 23.4862 11.4269C23.1695 10.9744 22.5459 10.8644 22.0935 11.1811L16.0003 15.4463L9.90713 11.1811Z"
				fill="#444CE7"
			/>
		</symbol>

		<symbol id="contacts" viewBox="0 0 32 32" fill="none"
		>
			<path
				d="M8 29.3337H25.3333C26.0406 29.3337 26.7189 29.0527 27.219 28.5526C27.719 28.0525 28 27.3742 28 26.667V5.33366C28 4.62641 27.719 3.94814 27.219 3.44804C26.7189 2.94794 26.0406 2.66699 25.3333 2.66699H6.66667C5.95942 2.66699 5.28115 2.94794 4.78105 3.44804C4.28095 3.94814 4 4.62641 4 5.33366V26.667C4 27.3742 4.28095 28.0525 4.78105 28.5526C5.28115 29.0527 5.95942 29.3337 6.66667 29.3337H8ZM16 6.66566C18.196 6.66566 20 8.46699 20 10.6657C20 12.863 18.196 14.667 16 14.667C13.804 14.667 12 12.863 12 10.6657C12 8.46699 13.804 6.66566 16 6.66566ZM8 23.0003C8 20.0417 11.6067 17.0003 16 17.0003C20.3933 17.0003 24 20.0417 24 23.0003V24.0003H8V23.0003Z"
				fill="#444CE7"
			/>
		</symbol>

		<symbol id="scanner" viewBox="0 0 32 32" fill="none"
		>
			<path
				d="M4.00033 5.33333V12H6.66699V6.66667H12.0003V4H5.33366C4.98004 4 4.6409 4.14048 4.39085 4.39052C4.1408 4.64057 4.00033 4.97971 4.00033 5.33333ZM28.0003 12V5.33333C28.0003 4.97971 27.8598 4.64057 27.6098 4.39052C27.3598 4.14048 27.0206 4 26.667 4H20.0003V6.66667H25.3337V12H28.0003ZM25.3337 25.3333H20.0003V28H26.667C27.0206 28 27.3598 27.8595 27.6098 27.6095C27.8598 27.3594 28.0003 27.0203 28.0003 26.6667V20H25.3337V25.3333ZM12.0003 28V25.3333H6.66699V20H4.00033V26.6667C4.00033 27.0203 4.1408 27.3594 4.39085 27.6095C4.6409 27.8595 4.98004 28 5.33366 28H12.0003ZM2.66699 14.6667H29.3337V17.3333H2.66699V14.6667Z"
				fill="#444CE7"
			/>
		</symbol>

		<symbol id="phone-fill" viewBox="0 0 32 32" fill="none"
		>
			<path
				d="M26.667 14.6657H29.3336C29.3336 7.82566 24.1696 2.66699 17.3203 2.66699V5.33366C22.7363 5.33366 26.667 9.25766 26.667 14.6657Z"
				fill="#444CE7"
			/>
			<path
				d="M17.3337 10.6667C20.1377 10.6667 21.3337 11.8627 21.3337 14.6667H24.0004C24.0004 10.3667 21.6337 7.99999 17.3337 7.99999V10.6667ZM21.8964 17.924C21.6402 17.6911 21.3035 17.5669 20.9574 17.5776C20.6114 17.5883 20.283 17.7331 20.0417 17.9813L16.851 21.2627C16.083 21.116 14.539 20.6347 12.9497 19.0493C11.3604 17.4587 10.879 15.9107 10.7364 15.148L14.015 11.956C14.2636 11.7148 14.4086 11.3864 14.4193 11.0403C14.43 10.6941 14.3056 10.3574 14.0724 10.1013L9.14571 4.68399C8.91243 4.42714 8.58821 4.27133 8.24191 4.24967C7.89561 4.22801 7.55451 4.3422 7.29104 4.56799L4.39771 7.04933C4.16719 7.28068 4.0296 7.58859 4.01104 7.91466C3.99104 8.24799 3.60971 16.144 9.73238 22.2693C15.0737 27.6093 21.7644 28 23.607 28C23.8764 28 24.0417 27.992 24.0857 27.9893C24.4117 27.9711 24.7195 27.8329 24.9497 27.6013L27.4297 24.7067C27.6557 24.4434 27.7701 24.1024 27.7487 23.7561C27.7273 23.4098 27.5717 23.0855 27.315 22.852L21.8964 17.924Z"
				fill="#444CE7"
			/>
		</symbol>

		<symbol id="analytics" viewBox="0 0 32 32" fill="none"
		>
			<path
				d="M25.333 4H23.9997C22.5269 4 21.333 5.19391 21.333 6.66667V25.3333C21.333 26.8061 22.5269 28 23.9997 28H25.333C26.8058 28 27.9997 26.8061 27.9997 25.3333V6.66667C27.9997 5.19391 26.8058 4 25.333 4Z"
				fill="#444CE7"
			/>
			<path
				d="M16.667 12H15.3337C13.8609 12 12.667 13.1939 12.667 14.6667V25.3333C12.667 26.8061 13.8609 28 15.3337 28H16.667C18.1398 28 19.3337 26.8061 19.3337 25.3333V14.6667C19.3337 13.1939 18.1398 12 16.667 12Z"
				fill="#444CE7"
			/>
			<path
				d="M8 21.333H6.66667C5.19391 21.333 4 22.5269 4 23.9997V25.333C4 26.8058 5.19391 27.9997 6.66667 27.9997H8C9.47276 27.9997 10.6667 26.8058 10.6667 25.333V23.9997C10.6667 22.5269 9.47276 21.333 8 21.333Z"
				fill="#444CE7"
			/>
		</symbol>

		<symbol id="contacts-2" viewBox="0 0 32 32" fill="none"
		>
			<path
				d="M28.0003 2.66699H8.00033C7.29308 2.66699 6.6148 2.94794 6.11471 3.44804C5.61461 3.94814 5.33366 4.62641 5.33366 5.33366V9.33366H2.66699V12.0003H5.33366V14.667H2.66699V17.3337H5.33366V20.0003H2.66699V22.667H5.33366V26.667C5.33366 27.3742 5.61461 28.0525 6.11471 28.5526C6.6148 29.0527 7.29308 29.3337 8.00033 29.3337H28.0003C28.3539 29.3337 28.6931 29.1932 28.9431 28.9431C29.1932 28.6931 29.3337 28.3539 29.3337 28.0003V4.00033C29.3337 3.6467 29.1932 3.30756 28.9431 3.05752C28.6931 2.80747 28.3539 2.66699 28.0003 2.66699ZM17.3337 6.66566C19.531 6.66566 21.3337 8.46699 21.3337 10.6657C21.3298 11.7255 20.9072 12.7408 20.1579 13.4903C19.4086 14.2398 18.3935 14.6628 17.3337 14.667C15.1377 14.667 13.3337 12.863 13.3337 10.6657C13.3337 8.46699 15.1377 6.66566 17.3337 6.66566ZM25.3337 24.0003H9.33366V23.0003C9.33366 20.0417 12.9403 17.0003 17.3337 17.0003C21.727 17.0003 25.3337 20.0417 25.3337 23.0003V24.0003Z"
				fill="#444CE7"
			/>
		</symbol>

		<symbol id="money" viewBox="0 0 32 32" fill="none"
		>
			<path
				fill-rule="evenodd"
				clip-rule="evenodd"
				d="M4.8 3C3.80589 3 3 3.80589 3 4.8V27.2C3 28.1941 3.80592 29 4.8 29H27.2C28.1941 29 29 28.1941 29 27.2V4.8C29 3.80592 28.1941 3 27.2 3H4.8ZM17 7.33333C17 6.78105 16.5523 6.33333 16 6.33333C15.4477 6.33333 15 6.78105 15 7.33333V8.80433C14.3131 8.9064 13.6404 9.14391 13.07 9.57591C12.1735 10.2549 11.6667 11.3113 11.6667 12.6667C11.6667 13.3272 11.8204 13.9143 12.1231 14.4215C12.4224 14.9228 12.8351 15.2925 13.2756 15.5728C14.0925 16.0927 15.134 16.3764 15.9943 16.6108L16.0703 16.6315C17.0293 16.8929 17.7833 17.108 18.3173 17.4479C18.5643 17.6051 18.7245 17.7665 18.8263 17.9371C18.9245 18.1017 19 18.3272 19 18.6667C19 19.4789 18.6729 19.9895 18.1944 20.3247C17.6756 20.688 16.908 20.8867 16.0359 20.8553C14.7001 20.8073 13.4279 20.2372 12.8 19.4C12.4686 18.9581 11.8418 18.8687 11.4 19.2C10.9582 19.5313 10.8686 20.1581 11.2 20.6C12.0927 21.7903 13.5432 22.5 15 22.7529V24.6667C15 25.2189 15.4477 25.6667 16 25.6667C16.5523 25.6667 17 25.2189 17 24.6667V22.812C17.8369 22.7116 18.6553 22.4436 19.3417 21.9628C20.3512 21.256 21 20.1357 21 18.6667C21 18.0061 20.8463 17.4192 20.5436 16.912C20.2443 16.4105 19.8315 16.0408 19.3911 15.7605C18.5741 15.2407 17.5327 14.9569 16.6724 14.7225L16.5964 14.7019C15.6373 14.4404 14.8833 14.2253 14.3493 13.8855C14.1024 13.7283 13.9421 13.5668 13.8404 13.3963C13.7421 13.2316 13.6667 13.0062 13.6667 12.6667C13.6667 11.8487 13.9471 11.4205 14.2776 11.1702C14.6499 10.8882 15.2319 10.7247 15.9731 10.7446C17.2381 10.7786 18.5885 11.3361 19.2929 12.0404C19.6835 12.431 20.3165 12.431 20.7071 12.0404C21.0976 11.6499 21.0976 11.0167 20.7071 10.6262C19.7972 9.71635 18.3983 9.07545 17 8.84117V7.33333Z"
				fill="#444CE7"
			/>
		</symbol>

		<symbol id="quote" viewBox="0 0 64 64" fill="none"
		>
			<g clip-path="url(#clip0_6024_2165)">
				<path
					fill-rule="evenodd"
					clip-rule="evenodd"
					d="M21.8062 34.7429C21.5022 37.5743 20.6829 39.8341 19.254 41.8346C17.3417 44.5117 14.1376 47.0077 8.83062 49.6614C7.47571 50.3387 6.9265 51.9862 7.60396 53.3412C8.28142 54.6962 9.92903 55.2455 11.2839 54.5679C16.9485 51.7357 21.0588 48.746 23.718 45.0229C26.4272 41.2301 27.429 36.9632 27.429 32V15.5427C27.429 12.008 24.5635 9.14258 21.0289 9.14258H6.40009C2.86545 9.14258 0 12.008 0 15.5427V28.3428C0 31.8775 2.86548 34.7429 6.40009 34.7429H21.8062Z"
					fill="#444CE7"
				/>
				<path
					fill-rule="evenodd"
					clip-rule="evenodd"
					d="M58.3773 34.7429C58.0734 37.5743 57.2542 39.8341 55.8253 41.8346C53.913 44.5117 50.7089 47.0077 45.4019 49.6614C44.047 50.3387 43.4976 51.9862 44.1753 53.3412C44.8526 54.6962 46.5002 55.2455 47.8552 54.5679C53.5198 51.7357 57.6301 48.746 60.2893 45.0229C62.9985 41.2301 64.0002 36.9632 64.0002 32V15.5427C64.0002 12.0081 61.1348 9.14258 57.6002 9.14258H42.9714C39.4367 9.14258 36.5713 12.0081 36.5713 15.5427V28.3428C36.5713 31.8775 39.4367 34.7429 42.9714 34.7429H58.3773Z"
					fill="#444CE7"
				/>
			</g>
			<defs>
				<clipPath id="clip0_6024_2165">
					<rect width="64" height="64" fill="white" />
				</clipPath>
			</defs>
		</symbol>

		<symbol id="reviews-arrow" viewBox="0 0 333 116" fill="none">
			<path
				opacity="0.16"
				d="M59.4999 -190.344C56.1086 -246.716 28.5039 -177.486 79.1457 -202.019C147.895 -235.325 231.018 -206.268 264.44 -137.28C297.861 -68.293 269.15 14.9664 200.401 48.2724C165.227 65.3127 124.403 66.4738 88.4021 52.0044L97.3876 38.7118L11.8597 32.3614L49.3491 109.746L57.7612 97.3073C110.216 122.191 171.581 122.161 223.914 96.8081C319.323 50.5867 359.216 -64.9315 312.813 -160.715C266.41 -256.499 151.032 -296.795 55.6233 -250.574C-14.6692 -216.52 1.08095 -265.492 5.8123 -187.26L59.4908 -190.363L59.4999 -190.344Z"
				fill="#444CE6"
			/>
		</symbol>

	</defs>
</svg>